<mxfile host="app.diagrams.net" modified="2023-01-13T11:10:37.571Z" agent="5.0 (Macintosh; Intel Mac OS X 10_15_7) AppleWebKit/605.1.15 (KHTML, like Gecko) Version/16.2 Safari/605.1.15" etag="j9iftxX-lf19U09NH1K2" version="20.8.4" type="github">
  <diagram id="kAxy7GY6eTMZanumjE_k" name="페이지-1">
    <mxGraphModel dx="1301" dy="830" grid="1" gridSize="10" guides="1" tooltips="1" connect="1" arrows="1" fold="1" page="1" pageScale="1" pageWidth="1169" pageHeight="827" math="0" shadow="0">
      <root>
        <mxCell id="0" />
        <mxCell id="1" parent="0" />
        <mxCell id="CN9grJ1vndZCzqCMUK1b-1" value="" style="html=1;shadow=0;dashed=0;align=center;verticalAlign=middle;shape=mxgraph.arrows2.arrow;dy=0.6;dx=40;notch=0;" parent="1" vertex="1">
          <mxGeometry x="358" y="141" width="100" height="70" as="geometry" />
        </mxCell>
        <mxCell id="CN9grJ1vndZCzqCMUK1b-2" value="" style="html=1;shadow=0;dashed=0;align=center;verticalAlign=middle;shape=mxgraph.arrows2.arrow;dy=0.6;dx=40;flipH=1;notch=0;" parent="1" vertex="1">
          <mxGeometry x="148" y="141" width="100" height="70" as="geometry" />
        </mxCell>
        <mxCell id="CN9grJ1vndZCzqCMUK1b-3" value="" style="html=1;shadow=0;dashed=0;align=center;verticalAlign=middle;shape=mxgraph.arrows2.arrow;dy=0.6;dx=40;direction=north;notch=0;" parent="1" vertex="1">
          <mxGeometry x="268" y="41" width="70" height="100" as="geometry" />
        </mxCell>
        <mxCell id="CN9grJ1vndZCzqCMUK1b-4" value="" style="html=1;shadow=0;dashed=0;align=center;verticalAlign=middle;shape=mxgraph.arrows2.arrow;dy=0.6;dx=40;direction=south;notch=0;" parent="1" vertex="1">
          <mxGeometry x="268" y="211" width="70" height="100" as="geometry" />
        </mxCell>
        <mxCell id="CN9grJ1vndZCzqCMUK1b-9" value="" style="html=1;shadow=0;dashed=1;align=center;verticalAlign=middle;shape=mxgraph.arrows2.arrow;dy=0.6;dx=40;notch=0;" parent="1" vertex="1">
          <mxGeometry x="800" y="141" width="100" height="70" as="geometry" />
        </mxCell>
        <mxCell id="CN9grJ1vndZCzqCMUK1b-10" value="" style="html=1;shadow=0;dashed=1;align=center;verticalAlign=middle;shape=mxgraph.arrows2.arrow;dy=0.6;dx=40;flipH=1;notch=0;" parent="1" vertex="1">
          <mxGeometry x="590" y="141" width="100" height="70" as="geometry" />
        </mxCell>
        <mxCell id="CN9grJ1vndZCzqCMUK1b-11" value="" style="html=1;shadow=0;dashed=0;align=center;verticalAlign=middle;shape=mxgraph.arrows2.arrow;dy=0.6;dx=40;direction=north;notch=0;" parent="1" vertex="1">
          <mxGeometry x="710" y="41" width="70" height="100" as="geometry" />
        </mxCell>
        <mxCell id="CN9grJ1vndZCzqCMUK1b-12" value="" style="html=1;shadow=0;dashed=1;align=center;verticalAlign=middle;shape=mxgraph.arrows2.arrow;dy=0.6;dx=40;direction=south;notch=0;" parent="1" vertex="1">
          <mxGeometry x="710" y="211" width="70" height="100" as="geometry" />
        </mxCell>
        <mxCell id="CN9grJ1vndZCzqCMUK1b-16" value="" style="curved=1;endArrow=classic;html=1;rounded=0;dashed=1;" parent="1" edge="1">
          <mxGeometry width="50" height="50" relative="1" as="geometry">
            <mxPoint x="794.9999999999998" y="59" as="sourcePoint" />
            <mxPoint x="864.9999999999998" y="119" as="targetPoint" />
            <Array as="points">
              <mxPoint x="874.9999999999995" y="59" />
            </Array>
          </mxGeometry>
        </mxCell>
        <mxCell id="CN9grJ1vndZCzqCMUK1b-17" value="90°" style="edgeLabel;html=1;align=center;verticalAlign=middle;resizable=0;points=[];fontSize=20;" parent="CN9grJ1vndZCzqCMUK1b-16" vertex="1" connectable="0">
          <mxGeometry x="-0.2333" y="6" relative="1" as="geometry">
            <mxPoint x="-1" as="offset" />
          </mxGeometry>
        </mxCell>
        <mxCell id="CN9grJ1vndZCzqCMUK1b-18" value="&amp;lt;그림 2-1&amp;gt; 4개의 화살표 이미지" style="text;html=1;strokeColor=none;fillColor=none;align=center;verticalAlign=middle;whiteSpace=wrap;rounded=0;dashed=1;fontSize=20;" parent="1" vertex="1">
          <mxGeometry x="128" y="341" width="342" height="30" as="geometry" />
        </mxCell>
        <mxCell id="CN9grJ1vndZCzqCMUK1b-19" value="&amp;lt;그림 2-2&amp;gt; 1개의 화살표 이미지를 회전" style="text;html=1;strokeColor=none;fillColor=none;align=center;verticalAlign=middle;whiteSpace=wrap;rounded=0;dashed=1;fontSize=20;" parent="1" vertex="1">
          <mxGeometry x="578" y="341" width="342" height="30" as="geometry" />
        </mxCell>
        <mxCell id="422qtvT163gtj_b05qDn-2" value="&amp;lt;그림 2-3&amp;gt; &amp;nbsp;서로 다른 모양의 화살표" style="text;html=1;strokeColor=none;fillColor=none;align=center;verticalAlign=middle;whiteSpace=wrap;rounded=0;dashed=1;fontSize=20;" vertex="1" parent="1">
          <mxGeometry x="118" y="721" width="342" height="30" as="geometry" />
        </mxCell>
        <mxCell id="422qtvT163gtj_b05qDn-4" value="Actor" style="shape=umlActor;verticalLabelPosition=bottom;verticalAlign=top;html=1;outlineConnect=0;" vertex="1" parent="1">
          <mxGeometry x="860" y="500" width="50" height="100" as="geometry" />
        </mxCell>
        <mxCell id="422qtvT163gtj_b05qDn-6" value="&amp;lt;그림 2-4&amp;gt; 1개의 화살표를 회전" style="text;html=1;strokeColor=none;fillColor=none;align=center;verticalAlign=middle;whiteSpace=wrap;rounded=0;dashed=1;fontSize=20;" vertex="1" parent="1">
          <mxGeometry x="578" y="721" width="342" height="30" as="geometry" />
        </mxCell>
        <mxCell id="422qtvT163gtj_b05qDn-7" value="" style="html=1;shadow=0;align=center;verticalAlign=middle;shape=mxgraph.arrows2.arrow;dy=0.6;dx=40;notch=0;direction=east;rotation=315;" vertex="1" parent="1">
          <mxGeometry x="740" y="610" width="100" height="70" as="geometry" />
        </mxCell>
        <mxCell id="422qtvT163gtj_b05qDn-8" value="" style="html=1;shadow=0;dashed=1;align=center;verticalAlign=middle;shape=mxgraph.arrows2.arrow;dy=0.6;dx=40;direction=north;notch=0;" vertex="1" parent="1">
          <mxGeometry x="630" y="513" width="70" height="100" as="geometry" />
        </mxCell>
        <mxCell id="422qtvT163gtj_b05qDn-9" value="" style="curved=1;endArrow=classic;html=1;rounded=0;dashed=1;" edge="1" parent="1">
          <mxGeometry width="50" height="50" relative="1" as="geometry">
            <mxPoint x="714.9999999999998" y="531" as="sourcePoint" />
            <mxPoint x="785" y="591" as="targetPoint" />
            <Array as="points">
              <mxPoint x="794.9999999999995" y="531" />
            </Array>
          </mxGeometry>
        </mxCell>
        <mxCell id="422qtvT163gtj_b05qDn-11" value="" style="shape=image;imageAspect=0;aspect=fixed;verticalLabelPosition=bottom;verticalAlign=top;image=data:image/png,iVBORw0KGgoAAAANSUhEUgAABRMAAAOKCAYAAAAIhseYAAAABGdBTUEAALGPC/xhBQAAACBjSFJNAAB6JgAAgIQAAPoAAACA6AAAdTAAAOpgAAA6mAAAF3CculE8AAAAUGVYSWZNTQAqAAAACAACARIAAwAAAAEAAQAAh2kABAAAAAEAAAAmAAAAAAADoAEAAwAAAAEAAQAAoAIABAAAAAEAAAUToAMABAAAAAEAAAOKAAAAAIzKKJAAAAFZaVRYdFhNTDpjb20uYWRvYmUueG1wAAAAAAA8eDp4bXBtZXRhIHhtbG5zOng9ImFkb2JlOm5zOm1ldGEvIiB4OnhtcHRrPSJYTVAgQ29yZSA2LjAuMCI+CiAgIDxyZGY6UkRGIHhtbG5zOnJkZj0iaHR0cDovL3d3dy53My5vcmcvMTk5OS8wMi8yMi1yZGYtc3ludGF4LW5zIyI+CiAgICAgIDxyZGY6RGVzY3JpcHRpb24gcmRmOmFib3V0PSIiCiAgICAgICAgICAgIHhtbG5zOnRpZmY9Imh0dHA6Ly9ucy5hZG9iZS5jb20vdGlmZi8xLjAvIj4KICAgICAgICAgPHRpZmY6T3JpZW50YXRpb24+MTwvdGlmZjpPcmllbnRhdGlvbj4KICAgICAgPC9yZGY6RGVzY3JpcHRpb24+CiAgIDwvcmRmOlJERj4KPC94OnhtcG1ldGE+Chle4QcAAEAASURBVHgB7N0HvGxXWTdgQgoJCYFAAqEmIfQOUkI3FCn5qCIgIIhSRIpIEwSlSyd0wQ/5EMGCIL1LVaSDUlR6EREIBOlJgPD9X3Kvubn3nDNr5uyZ2eVZv997z7mz1157vc/as/eZNXv2nOlMCgECBAgQIECAAAECBAgQIECAAAECBAgQIECAAAECBAgQIECAAAECBAgQIECAAAECBAgQIECAAAECBAgQIECAAAECBAgQIECAAAECBAgQIECAAAECBAgQIECAAAECBAgQIECAAAECBAgQIECAAAECBAgQIECAAAECBAgQIECAAAECBAgQIECAAAECBAgQIECAAAECBAgQIECAAAECBAgQIECAAAECBAgQIECAAAECBAgQIECAAAECBAgQIECAAAECBAgQIECAAAECBAgQIECAAAECBAgQIECAAAECBAgQIECAAAECBAgQIECAAAECBAgQIECAAAECBAgQIECAAAECBAgQIECAAAECBAgQIECAAAECBAgQIECAAAECBAgQIECAAAECBAgQIECAAAECBAgQIECAAAECBAgQIECAAAECBAgQIECAAAECBAgQIECAAAECBAgQIECAAAECBAgQIECAAAECBAgQIECAAAECBAgQIECAAAECBAgQIECAAAECBAgQIECAAAECBAgQIECAAAECBAgQIECAAAECBAgQIECAAAECBAgQIECAAAECBAgQIECAAAECBAgQIECAAAECBAgQIECAAAECBAgQIECAAAECBAgQIECAAAECBAgQIECAAAECBAgQIECAAAECBAgQIECAAAECBAgQIECAAAECBAgQIECAAAECBAgQIECAAAECBAgQIECAAAECBAgQIECAAAECBAgQIECAAAECBAgQIECAAAECBAgQIECAAAECBAgQIECAAAECBAgQIECAAAECBAgQIECAAAECBAgQIECAAAECBAgQIECAAAECBAgQIECAAAECBAgQIECAAAECBAgQIECAAAECBAgQIECAAAECBAgQIECAAAECBAgQIECAAAECBAgQIECAAAECBAgQIECAAAECBAgQIECAAAECBAgQIECAAAECBAgQIECAAAECBAgQIECAAAECBPopsFc/u6VXBAgQIECAwDYE6vx+tsQ5Emff8bN+3/n/ffO7QoAAgS4EfpJGvpv4n11i5/+/n8d+nlAIECBAgACBEQmYTBzRYEqFAAECBCYpcIFkfdXEpROX2hEXz8+zJBQCBAisU+DkbPzTiX/bJT6Q37+aUAgQIECAAIGBCphMHOjA6TYBAgQITFbgsGR+bOL6O+LoyUpInACBoQp8IR1/+454R36eMNRE9JsAAQIECExRwGTiFEddzgQIECAwNIGaMLx14laJYxLO30FQCBAYhUB9DLquVvz7xKsSn0soBAgQIECAQI8FvBjp8eDoGgECBAhMWmD/ZH/bxO8krj5pCckTIDAlgfcl2RckXp748ZQSlysBAgQIEBiKgMnEoYyUfhIgQIDAVATqi1Puk/j9RH2kWSFAgMAUBb6VpI9PPCfxvSkCyJkAAQIECPRVwGRiX0dGvwgQIEBgagIHJuH7JR6UOOfUkpcvAQIENhH4Th5/auJZiR9sUsfDBAgQIECAwAoFTCauENumCBAgQIDABgL75rF7Jv4oce4NlnuIAAECBE77kpbHBuL5iZ8AIUCAAAECBNYnYDJxffa2TIAAAQIEbh6CuuLmoigIECBAoEmgvqDlwYlXN9VWiQABAgQIEOhcwGRi56QaJECAAAECMwVq8vDZiRvNrLlYhVOz2ncT9fHAihN3+f1/8rureoKgEBi4wH7p/7UTV0uceeC5LNL9t2Wlur/sZxZZ2ToECBAgQIAAAQIECBAgQGAIAvWR5ocnTkr8vMOoK3VelLh74kqJ2o5CgMD4BC6UlOq2CHVV3vcTXR5HhthWHUvrFhGOeUFQCBAgQIAAAQIECBAgQGBcApdOOh9NdPGCvb7Z9FWJmlQ4IqEQIDBOgZoku17iKYlPJro4foyxjY/F5jIJhQABAgQIECBAgAABAgQIjELgXsnix4ntvIg/OevXBOKtE/XxRoUAgXEKXDBp3SNRz3dXH7YfN+sqxXsnFAIECBAgQIAAAQIECBAgMFiBA9LzlyW2M4lYVyE+IXGehEKAwPgE6urDYxNPTnwisZ3jhXXPdKa/juFZEwoBAgQIECBAgAABAgQIEBiUQE3+fSix6Iv7H2TdP0mcM6EQIDAugQsknbsn/j5Rbxgsepyw3sZ2H47p4QmFAAECBAgQIECAAAECBAgMQuDI9LK+FGWRF/qnZL3nJs6dUAgQGIdAXX34y4knJVx9uNixcd7j6RdifVRCIUCAAAECBDoW2Kvj9jRHgAABAgSmLlD3O/vHxBELQLw569w/8ekF1p3aKvU3zNkSB+/4eeapAci39wJ7p4dXTdwkcYNE7avKagW+ks1dO1E/FQIECBAgQKAjAZOJHUFqhgABAgQIROCQxHsTl5xT46upf79EfeGCcrrAhfLrxRJHJmpytmLn7+fP7zVZoxAgQGArgXpz5hqJE7eqZBkBAgQIECDQLmAysd1KTQIECBAgsJVAfcPyWxPX3arSBsv+PI89IFH3TZt6qXucXS9x/R2xyNWdUzeUPwECewrU1eI3TJy85yKPECBAgAABAgQIECBAgACB9Qi8OJv9+Rzx7dS9ZWLq5cgAPCjxgcQ8furysg/YB+bZB16SY4xCgAABAgQIECBAgAABAgR6IfDA9GKeF7UfS/0je9Hz9XSiPhlxi8TbE/O4qcvLPmAf2M4+8JD1HPJslQABAgQIECBAgAABAgQInC5QX6zw00TrC9zXp+6Bp68+qd9qEvHXEr7Ntn1/ad2v1GNqH5i9D/wsx59fmdRRV7IECBAgQIAAAQIECBAg0CuBC6Q3JyRaX8S/PHX36VUGq+vMcdnUvyZardRjZR+wDyxjH/hWjkP15U4KAQIECBAgQIAAAQIECBBYqUBNCtY3N7e+2H1D6k5xIvGKyfudczi1eqrXvu+xYmUfOOM+8L6JHo+TtkKAAAECBLYvsPf2m9ACAQIECBCYpMBjkvUdGzP/aOrdNDGlbxI9Z/I9PvGCxFEJhQABAn0RqKvK90vUfVsVAgQIECBAYE6BuneRQoAAAQIECMwncK1Uf3fizA2r/VfqXDXxtYa6Y6lyuyTy7MRhS0zolLT9vcR3d/w8dYnb0jSBRQXqjfuDd8TZ83PfRRuyXucCdcw4NvGezlvWIAECBAgQGLmAycSRD7D0CBAgQKBzgfrylI8nLtzQ8kmpc+3EhxvqjqHKIUmirkSsL1npqnwuDf1z4jOJzye+sOPnt/NTITA0gZpgPzpRx4/6efHENRNHJpTVC3wpm7xs4ger37QtEiBAgAABAgQIECBAgMBUBOqKu9b7j/3mVFCS59USX0602mxW7/tp41WJeyQumFAITEGgJhfvnahve/9hYrPnh8e7t3luvBUCBAgQIECAAAECBAgQILAUgWPS6s8SLS/oX7iUHvSz0TunW3U/yBaXjerUxw3fmbhDYv+EQmDKAnX1810T83zB00bPK4+1HZPq+HONKe9wcidAgAABAgQIECBAgACB5QjUvc/+JdHyAv1TqXfAcrrRu1Yf1miykVu9iH9l4vK9y0qHCPRDoK74fUNio+ePx7pzqVtX7NOPIdcLAgQIECBAgAABAgQIEBiLwH2SSMuL97pC73JjSXpGHo9oNNnI7U1Z9woz2reYAIHTBOqq6HcmNnoueawbl/vZ2QgQIECAAAECBAgQIECAQFcC50hD9YUfLS/aH9rVRnveTt3TsMVj9zqfzHo36HluukegrwI3T8c+m9j9eeX/2zc5Ma71JVIKAQIECBAgQIAAAQIECBDYtsCT0kLLi/X61ub6OPTYy42S4E8TLSY769SXSjw44aOEQVAIbENgv6z7yER9W/zO55ef3Vg8ZRvjYlUCBAgQIECAAAECBAgQIPALgcPz748Ss16s1+TalX6xxrj/uWTS+25ilseuy+uLJI4eN4vsCKxc4FLZ4kcSuz7X/L49jx/H83wrH0kbJECAAAECBAgQIECAAIFRCRyfbFpeoD9nVFlvnMzZ8/BnGj3KrL5g5U8SU7haM2kqBFYusG+2+KxEyzFKnTanZ658FG2QAAECBAgQIECAAAECBEYjcK5kUh/PnfUivO61dc7RZL1xInvl4dcmZlnsXF5Xc95m46Y8SoBAxwK/mfZOSex8/vm5uEUduw5NKAQIECBAgAABAgQIECBAYG6BP8oaLS/K616AYy+VY4tF1flB4rpjB5EfgZ4JHJf+uI9i+3Fqq+PZH/dsbHWHAAECBAgQIECAAAECBAYgUF8U8rXEVi84a9l/Jw5IjLlcJcm1XvVU9a4/Zgy5EeixwC3Tt58lZh23LN/aqI7r9RFyhQABAgQIECBAgAABAgQINAv8amq2vOB+QHOLw6x41nR7nvsk3mWYaeo1gdEI3DeZtBy71NnayW0aRvOUkAgBAgQIECBAgAABAgRWI/CGbGbWi+3vpM5Bq+nO2rZSX0Ywy2Hn8iesrZc2TIDArgLPy392Pi/9XMzijbuC+p0AAQIECBAgQIAAAQIECGwlcFgW/iQx60X4U7ZqZATLrpEc6huZZznU8jclzpxQCBBYv0B9RPcfEy3PXXU2dvpp/M69/qHUAwIECBAgQIAAAQIECBAYgsA908lZL7Brku3oISSzYB/rnpGfSMxyqOVfToz926yTokJgUALnTW+/nmh5DquzsdO9BjXiOkuAAAECBAgQIECAAAECaxOoq+xmvbh+19p6t5oN/16DQRnV1Tt1BaNCgED/BH4lXWq9unjWMW+Ky9/SvyHVIwIECBAgQIAAAQIECBDom0B9M/NJiVkvnO/Rt4532J+6yvDEBoMyenSH29UUAQLdCxyfJmcdzyzf2KjOBfUlVAoBAgQIECBAgAABAgQIENhUoK7kmfXC+mepU/dVHGupe0HOMqjlH0vUvdkUAgT6K1BvkMzzjewtz/0p1blRf4dWzwgQIECAwHoE3Ch9Pe62SoAAAQL9FbhOQ9fenzonNNQbYpXD0+l7N3S8Pjp590R9UY1CgEB/BX6crtVzVVlMoOWcsFjL1iJAgAABAgMVMJk40IHTbQIECBBYmsDVG1p+W0OdoVZ5YDpeVzLNKs9PhQ/PqmQ5AQK9EHh3evHSXvRkeJ1oOScMLys9JkCAAAECBAgQIECAAIHOBL6TlmZ9hO/YzrbWr4bOnu58ryH/MjpXv7quNwQIzBA4f5b/MDHr+Gb5GY3qeKcQIECAAAECBAgQIECAAIENBS6QR2e9kK77JR604drDf/D+DfmXz0OHn6oMCExS4PHJetYxzvI9jS44yb1F0gQIECBAgAABAgQIECAwU+B6qTHrhfSnZ7Yy3Ar/3pD/N1PnwOGmqOcEJi1wSLJvufp41nFwasuvP+m9RvIECBAgQGA3AfdM3A3EfwkQIEBg0gJHNWRfE25jLMckqUs0JPas1KmPSioECAxPoD6yW/c7VeYTaDk3zNei2gQIECBAYMACJhMHPHi6ToAAAQKdC5yvocUvNNQZYpU7NHT6pNQxEdEApQqBHgvUGwJ1uwalXaDl3NDempoECBAgQGDgAiYTBz6Auk+AAAECnQoc1tDaVxvqDK3KXunwrRs6/YrU+VZDPVUIEOivQB3DXt/f7vWyZy3nhl52XKcIECBAgMAyBEwmLkNVmwQIECAwVIH6NuNZZYyTaVdI0vVNr7PKi2dVsJwAgUEIvHgQvexPJw/uT1f0hAABAgQIrF/AZOL6x0APCBAgQKA/Agc0dOX7DXWGVuWGDR3+Ruq8s6GeKgQI9F/gTelifRGL0ibQcm5oa0ktAgQIECAwAgGTiSMYRCkQIECAQGcCLefFUzrbWn8auk5DV+pjkac21FOFAIH+C5ycLr65/93sTQ/37k1PdIQAAQIECPRAoOVFUw+6qQsECBAgQGAlAi1fSlD3FxxbuVpDQm9pqKMKAQLDEfCcbh+rlnNDe2tqEiBAgACBgQuYTBz4AOo+AQIECHQqUN9WPKucZVaFgS2/QPp7aEOf39NQRxUCBIYj4DndPlY/bq+qJgECBAgQGL+AycTxj7EMCRAgQKBd4CcNVcd27rxkQ87/mTp1z0SFAIHxCHwuqXxnPOksNZOWc8NSO6BxAgQIECDQJ4GxvSDqk62+ECBAgACBIQhcuKGTH2+oowoBAsMT+MTwuqzHBAgQIECAwLoFTCauewRsnwABAgQIrFegPuY8q9QVTAoBAuMT+Oz4UpIRAQIECBAgsGwBk4nLFtY+AQIECBDot0DL/RK/2u8U9I4AgQUFPLcXhLMaAQIECBCYsoDJxCmPvtwJECBAgMCZznRwA8K3GuqoQoDA8AQ8t4c3ZnpMgAABAgTWLmAyce1DoAMECBAgQGCtAvs1bP2HDXVUIUBgeAKe28MbMz0mQIAAAQJrFzCZuPYh0AECBAgQINB7gZ/1voc6SIDAIgKe24uoWYcAAQIECExcwGTixHcA6RMgQIDA5AVObhBouXqxoRlVCBDomYDnds8GRHcIECBAgMAQBEwmDmGU9JEAAQIECCxP4JSGpvdtqKMKAQLDE/DcHt6Y6TEBAgQIEFi7gMnEtQ+BDhAgQIAAAQIECBAgQIAAAQIECBAYhoDJxGGMk14SIECAAAECBAgQIECAAAECBAgQWLuAycS1D4EOECBAgAABAgQIECBAgAABAgQIEBiGgMnEYYyTXhIgQIAAAQIECBAgQIAAAQIECBBYu4DJxLUPgQ4QIECAAAECBAgQIECAAAECBAgQGIaAycRhjJNeEiBAgAABAgQIECBAgAABAgQIEFi7gMnEtQ+BDhAgQIAAAQIECBAgQIAAAQIECBAYhoDJxGGMk14SIECAAAECBAgQIECAAAECBAgQWLuAycS1D4EOECBAgAABAgQIECBAgAABAgQIEBiGgMnEYYyTXhIgQIAAAQIECBAgQIAAAQIECBBYu4DJxLUPgQ4QIECAAAECBAgQIECAAAECBAgQGIaAycRhjJNeEiBAgAABAgQIECBAgAABAgQIEFi7gMnEtQ+BDhAgQIAAAQIECBAgQIAAAQIECBAYhoDJxGGMk14SIECAAAECBAgQIECAAAECBAgQWLuAycS1D4EOECBAgAABAgQIECBAgAABAgQIEBiGgMnEYYyTXhIgQIAAAQIECBAgQIAAAQIECBBYu4DJxLUPgQ4QIECAAAECBAgQIECAAAECBAgQGIaAycRhjJNeEiBAgAABAgQIECBAgAABAgQIEFi7gMnEtQ+BDhAgQIAAAQIECBAgQIAAAQIECBAYhoDJxGGMk14SIECAAAECBAgQIECAAAECBAgQWLuAycS1D4EOECBAgAABAgQIECBAgAABAgQIEBiGgMnEYYyTXhIgQIAAAQIECBAgQIAAAQIECBBYu4DJxLUPgQ4QIECAAAECBAgQIECAAAECBAgQGIaAycRhjJNeEiBAgAABAgQIECBAgAABAgQIEFi7gMnEtQ+BDhAgQIAAAQIECBAgQIAAAQIECBAYhoDJxGGMk14SIECAAAECBAgQIECAAAECBAgQWLuAycS1D4EOECBAgAABAgQIECBAgAABAgQIEBiGgMnEYYyTXhIgQIAAAQIECBAgQIAAAQIECBBYu4DJxLUPgQ4QIECAAAECBAgQIECAAAECBAgQGIaAycRhjJNeEiBAgAABAgQIECBAgAABAgQIEFi7gMnEtQ+BDhAgQIAAAQIECBAgQIAAAQIECBAYhoDJxGGMk14SIECAAAECBAgQIECAAAECBAgQWLuAycS1D4EOECBAgAABAgQIECBAgAABAgQIEBiGgMnEYYyTXhIgQIAAAQIECBAgQIAAAQIECBBYu4DJxLUPgQ4QIECAAAECBAgQIECAAAECBAgQGIaAycRhjJNeEiBAgAABAgQIECBAgAABAgQIEFi7gMnEtQ+BDhAgQIAAAQIECBAgQIAAAQIECBAYhoDJxGGMk14SIECAAAECBAgQIECAAAECBAgQWLuAycS1D4EOECBAgAABAgQIECBAgAABAgQIEBiGgMnEYYyTXhIgQIAAAQIECBAgQIAAAQIECBBYu4DJxLUPgQ4QIECAAAECBAgQIECAAAECBAgQGIaAycRhjJNeEiBAgAABAgQIECBAgAABAgQIEFi7gMnEtQ+BDhAgQIAAAQIECBAgQIAAAQIECBAYhoDJxGGMk14SIECAAAECBAgQIECAAAECBAgQWLuAycS1D4EOECBAgAABAgQIECBAgAABAgQIEBiGgMnEYYyTXhIgQIAAAQIECBAgQIAAAQIECBBYu4DJxLUPgQ4QIECAAAECBAgQIECAAAECBAgQGIaAycRhjJNeEiBAgAABAgQIECBAgAABAgQIEFi7gMnEtQ+BDhAgQIAAAQITEdhrInlKkwABAgQIECBAYMQCJhNHPLhSI0CAAAECBHojcFx68tu96Y2OECBAgAABAgQIEFhQYJ8F17MaAQIECBAgQIBAm8C+qfb0xDkSL098L6EQIECAAAECBAgQGKSAKxMHOWw6TYAAAQIECAxI4H7p68US50788YD6rasECBAgQIAAAQIE9hAwmbgHiQcIECBAgAABAp0J7D6BuHNisbMNaIgAAQIECBAgQIDAKgVMJq5S27YIECBAgACBqQk8PgkfvEvSOz/yvMtDfiVAgAABAgQIECAwHAGTicMZKz0lQIAAAQIEhiVwpXT3tzbocn0Zy403eNxDBAgQIECAAAECBHovYDKx90OkgwQIECBAgMBABZ6Zfm/2t9bxWeaL8AY6sLpNgAABAgQIEJiywGZ/4E7ZRO4ECBAgQIAAge0K3C4NXGuLRi6RZffZYrlFBAgQIECAAAECBHopYDKxl8OiUwQIECBAgMCABQ5I35/c0P9Hps6hDfVUIUCAAAECBAgQINAbAZOJvRkKHSFAgAABAgRGIvCQ5HGhhlzOkTqPa6inCgECBAgQIECAAIHeCJhM7M1Q6AgBAgQIECAwAoELJoc/mCOPu6Xu5eeoryoBAgQIECBAgACBtQqYTFwrv40TIECAAAECIxOojzfXx5xby96p+IzWyuoRIECAAAECBAgQWLeAycR1j4DtEyBAgAABAmMRqC9cuf0Cyfxy1rnNAutZhQABAgQIECBAgMDKBUwmrpzcBgkQIECAAIERCtTfVM/cRl5Pybr7b2N9qxIgQIAAAQIECBBYiYDJxJUw2wgBAgQIECAwcoG7Jr8rbSPHI7Pug7axvlUJECBAgAABAgQIrETAZOJKmG2EAAECBAgQGLHAwcntTzrI76Fp4/wdtKMJAgQIECBAgAABAksTMJm4NFoNEyBAgAABAhMR+KPkee4Ocj0wbTyxg3Y0QYAAAQIECBAgQGBpAiYTl0arYQIECBAgQGACAhdNjvfrMM87pq2rd9iepggQIECAAAECBAh0KmAysVNOjREgQIAAAQITE3h68t2vw5z3Slv1RS71UyFAgAABAgQIECDQOwGTib0bEh0iQIAAAQIEBiJwo/Tz/yyhr1dJm3deQruaJECAAAECBAgQILBtAZOJ2ybUAAECBAgQIDBBgX2S8/FLzPsJafugJbavaQIECBAgQIAAAQILCZhMXIjNSgQIECBAgMDEBe6d/C+5RIPzpu2HL7F9TRMgQIAAAQIECBBYSMBk4kJsViJAgAABAgQmLHBocn/UCvL//Wzj6BVsxyYIECBAgAABAgQINAuYTGymUpEAAQIECBAg8AuBx+bfc6zA4izZxlNXsB2bIECAAAECBAgQINAsYDKxmUpFAgQIECBAgMCZLheDu6/Q4ZbZ1vVXuD2bIkCAAAECBAgQILClgMnELXksJECAAAECBAicQeAZ+d/eZ3hk+f9ZxzaXn5UtECBAgAABAgQIDFLAZOIgh02nCRAgQIAAgTUI/Gq2eewatnuZbPN31rBdmyRAgAABAgQIECCwh4DJxD1IPECAAAECBAgQ2ENg/zyyzvsXPibbP+cevfIAAQIECBAgQIAAgRULmExcMbjNESBAgAABAoMUeGB6feQae14TiY9e4/ZtmgABAgQIECBAgMAvBEwm2hEIECBAgAABAlsLnC+LH7Z1lZUsvVe2cumVbMlGCBAgQIAAAQIECGwiYDJxExgPEyBAgAABAgR2CDwpPw/sgUZ98Ut9GYtCgAABAgQIECBAYG0CJhPXRm/DBAgQIECAwAAEjkkf79ijft4gfblFj/qjKwQIECBAgAABAhMTMJk4sQGXLgECBAgQINAssFdqPjNRP/tUnpbOnKVPHdIXAgQIECBAgACB6QiYTJzOWMuUAAECBAgQmE/gzql+1flWWUnto7OV+69kSzZCgAABAgQIECBAYDcBk4m7gfgvAQIECBAgQCACByWe0GOJh6dvh/e4f7pGgAABAgQIECAwUgGTiSMdWGkRIECAAAEC2xL4w6x93m21sNyVz5bm+zzZudzstU6AAAECBAgQILA2AZOJa6O3YQIECBAgQKCnAhdOvx7Q077t2q275D9X2fUBvxMgQIAAAQIECBBYtoDJxGULa58AAQIECBAYmsBT0+EhfMFJX78gZmjjrb8ECBAgQIAAAQJzCJhMnANLVQIECBAgQGD0AtdPhrcaUJZXT1/vMKD+6ioBAgQIECBAgMDABUwmDnwAdZ8AAQIECBDoTGDvtPSMzlpbXUNPyqYOXN3mbIkAAQIECBAgQGDKAiYTpzz6cidAgAABAgR2Fbhn/nOZXR8YyO/nTz8fOpC+6iYBAgQIECBAgMDABUwmDnwAdZ8AAQIECBDoROCQtPKYTlpaTyMPymaPWM+mbZUAAQIECBAgQGBKAiYTpzTaciVAgAABAgQ2E3h0Fpxrs4UDeHz/9LG+OEYhQIAAAQIECBAgsFQBk4lL5dU4AQIECBAgMACBS6WP9xpAP2d18TapcN1ZlSwnQIAAAQIECBAgsB0Bk4nb0bMuAQIECBAgMAaB+tKVfcaQSHJ4ZsLfdyMZTGkQIECAAAECBPoo4I/NPo6KPhEgQIAAAQKrErh5NnTDVW1sBdu5fLZx9xVsxyYIECBAgAABAgQmKmAycaIDL20CBAgQIEDgTPvF4GkjdHhccjrHCPOSEgECBAgQIECAQA8ETCb2YBB0gQABAgQIEFiLwP2z1YusZcvL3eihaf6Ry92E1gkQIECAAAECBKYqYDJxqiMvbwIECBAgMG2Bw5P+I0ZMcO/kdokR5yc1AgQIECBAgACBNQmYTFwTvM0SIECAAAECaxX4k2z9bGvtwXI3vm+aP365m9A6AQIECBAgQIDAFAVMJk5x1OVMgAABAgSmLXDlpP+bEyC4cXI8bgJ5SpEAAQIECBAgQGCFAvuscFs2RYAAAQIECBDog8Bl0onnLrkjv5P2W/7Oel7qnbrEvhy9xLY1TYAAAQIECBAgMEGBlj9yJ8giZQIECBAgQGDEAi9ObhXLLL+Vxlv+zvr91DtlmR3RNgECBAgQIECAAIEuBXzMuUtNbREgQIAAAQIECBAgQIAAAQIECBAYsYDJxBEPrtQIECBAgAABAgQIECBAgAABAgQIdClgMrFLTW0RIECAAAECBAgQIECAAAECBAgQGLGAycQRD67UCBAgQIAAAQIECBAgQIAAAQIECHQpYDKxS01tESBAgAABAgQIECBAgAABAgQIEBixgMnEEQ+u1AgQIECAAAECBAgQIECAAAECBAh0KWAysUtNbREgQIAAAQIECBAgQIAAAQIECBAYsYDJxBEPrtQIECBAgAABAgQIECBAgAABAgQIdClgMrFLTW0RIECAAAECBAgQIECAAAECBAgQGLGAycQRD67UCBAgQIAAAQIECBAgQIAAAQIECHQpYDKxS01tESBAgAABAgQIECBAgAABAgQIEBixgMnEEQ+u1AgQIECAAAECBAgQIECAAAECBAh0KWAysUtNbREgQIAAAQIECBAgQIAAAQIECBAYsYDJxBEPrtQIECBAgAABAgQIECBAgAABAgQIdClgMrFLTW0RIECAAAECBAgQIECAAAECBAgQGLGAycQRD67UCBAgQIAAAQIECBAgQIAAAQIECHQpYDKxS01tESBAgAABAgQIECBAgAABAgQIEBixgMnEEQ+u1AgQIECAAAECBAgQIECAAAECBAh0KWAysUtNbREgQIAAAQIECBAgQIAAAQIECBAYsYDJxBEPrtQIECBAgAABAgQIECBAgAABAgQIdClgMrFLTW0RIECAAAECBAgQIECAAAECBAgQGLGAycQRD67UCBAgQIAAAQIECBAgQIAAAQIECHQpYDKxS01tESBAgAABAgQIECBAgAABAgQIEBixgMnEEQ+u1AgQIECAAAECBAgQIECAAAECBAh0KWAysUtNbREgQIAAAQIECBAgQIAAAQIECBAYsYDJxBEPrtQIECBAgAABAgQIECBAgAABAgQIdClgMrFLTW0RIECAAAECBAgQIECAAAECBAgQGLGAycQRD67UCBAgQIAAAQIECBAgQIAAAQIECHQpYDKxS01tESBAgAABAgQIECBAgAABAgQIEBixgMnEEQ+u1AgQIECAAAECBAgQIECAAAECBAh0KWAysUtNbREgQIAAAQIECBAgQIAAAQIECBAYsYDJxBEPrtQIECBAgAABAgQIECBAgAABAgQIdClgMrFLTW0RIECAAAECBAgQIECAAAECBAgQGLGAycQRD67UCBAgQIAAAQIECBAgQIAAAQIECHQpYDKxS01tESBAgAABAgQIECBAgAABAgQIEBixgMnEEQ+u1AgQIECAAAECBAgQIECAAAECBAh0KWAysUtNbREgQIAAAQIECBAgQIAAAQIECBAYsYDJxBEPrtQIECBAgAABAgQIECBAgAABAgQIdClgMrFLTW0RIECAAAECBAgQIECAAAECBAgQGLGAycQRD67UCBAgQIAAAQIECBAgQIAAAQIECHQpYDKxS01tESBAgAABAgQIECBAgAABAgQIEBixgMnEEQ+u1AgQIECAAAECBAgQIECAAAECBAh0KWAysUtNbREgQIAAAQIECBAgQIAAAQIECBAYsYDJxBEPrtQIECBAgAABAgQIECBAgAABAgQIdClgMrFLTW0RIECAAAECBAgQIECAAAECBAgQGLGAycQRD67UCBAgQIAAAQIECBAgQIAAAQIECHQpYDKxS01tESBAgAABAgQIECBAgAABAgQIEBixgMnEEQ+u1AgQIECAAAECBAgQIECAAAECBAh0KWAysUtNbREgQIAAAQIECBAgQIAAAQIECBAYsYDJxBEPrtQIECBAgAABAgQIECBAgAABAgQIdClgMrFLTW0RIECAAAECBAgQIECAAAECBAgQGLGAycQRD67UCBAgQIAAAQIECBAgQIAAAQIECHQpYDKxS01tESBAgAABAgQIECBAgAABAgQIEBixgMnEEQ+u1AgQIECAAAECBAgQIECAAAECBAh0KWAysUtNbREgQIAAAQIECBAgQIAAAQIECBAYsYDJxBEPrtQIECBAgAABAgQIECBAgAABAgQIdClgMrFLTW0RIECAAAECBAgQIECAAAECBAgQGLGAycQRD67UCBAgQIAAAQIECBAgQIAAAQIECHQpYDKxS01tESBAgAABAgQIECBAgAABAgQIEBixgMnEEQ+u1AgQIECAAAECBAgQIECAAAECBAh0KWAysUtNbREgQIAAAQIECBAgQIAAAQIECBAYsYDJxBEPrtQIECBAgAABAgQIECBAgAABAgQIdClgMrFLTW0RIECAAAECBAgQIECAAAECBAgQGLGAycQRD67UCBAgQIAAAQIECBAgQIAAAQIECHQpYDKxS01tESBAgAABAgQIECBAgAABAgQIEBixgMnEEQ+u1AgQIECAAAECBAgQIECAAAECBAh0KWAysUtNbREgQIAAAQIECBAgQIAAAQIECBAYsYDJxBEPrtQIECBAgAABAgQIECBAgAABAgQIdClgMrFLTW0RIECAAAECBAgQIECAAAECBAgQGLGAycQRD67UCBAgQIAAAQIECBAgQIAAAQIECHQpYDKxS01tESBAgAABAgQIECBAgAABAgQIEBixgMnEEQ+u1AgQIECAAAECBAgQIECAAAECBAh0KWAysUtNbREgQIAAAQIECBAgQIAAAQIECBAYsYDJxBEPrtQIECBAgAABAgQIECBAgAABAgQIdClgMrFLTW0RIECAAAECBAgQIECAAAECBAgQGLGAycQRD67UCBAgQIAAAQIECBAgQIAAAQIECHQpYDKxS01tESBAgAABAgQIECBAgAABAgQIEBixgMnEEQ+u1AgQIECAAAECBAgQIECAAAECBAh0KWAysUtNbREgQIAAAQIECBAgQIAAAQIECBAYscA+I85NagQIECBAgACBdQmckA2fdV0bt10CBAgQIECAAAECyxIwmbgsWe0SIECAAAECUxY4csrJy50AAQIECBAgQGC8Aj7mPN6xlRkBAgQIECBAgAABAgQIECBAgACBTgVMJnbKqTECBAgQIECAAAECBAgQIECAAAEC4xUwmTjesZUZAQIECBAgQIAAAQIECBAgQIAAgU4FTCZ2yqkxAgQIECBAgAABAgQIECBAgAABAuMVMJk43rGVGQECBAgQIECAAAECBAgQIECAAIFOBUwmdsqpMQIECBAgQIAAAQIECBAgQIAAAQLjFTCZON6xlRkBAgQIECBAgAABAgQIECBAgACBTgVMJnbKqTECBAgQIECAAAECBAgQIECAAAEC4xUwmTjesZUZAQIECBAgQIAAAQIECBAgQIAAgU4FTCZ2yqkxAgQIECBAgAABAgQIECBAgAABAuMVMJk43rGVGQECBAgQIECAAAECBAgQIECAAIFOBUwmdsqpMQIECBAgQIAAAQIECBAgQIAAAQLjFTCZON6xlRkBAgQIECBAgAABAgQIECBAgACBTgVMJnbKqTECBAgQIECAAAECBAgQIECAAAEC4xUwmTjesZUZAQIECBAgQIAAAQIECBAgQIAAgU4FTCZ2yqkxAgQIECBAgAABAgQIECBAgAABAuMVMJk43rGVGQECBAgQIECAAAECBAgQIECAAIFOBUwmdsqpMQIECBAgQIAAAQIECBAgQIAAAQLjFTCZON6xlRkBAgQIECBAgAABAgQIECBAgACBTgVMJnbKqTECBAgQIECAAAECBAgQIECAAAEC4xUwmTjesZUZAQIECBAgQIAAAQIECBAgQIAAgU4FTCZ2yqkxAgQIECBAgAABAgQIECBAgAABAuMVMJk43rGVGQECBAgQIECAAAECBAgQIECAAIFOBUwmdsqpMQIECBAgQIAAAQIECBAgQIAAAQLjFTCZON6xlRkBAgQIECBAgAABAgQIECBAgACBTgVMJnbKqTECBAgQIECAAAECBAgQIECAAAEC4xUwmTjesZUZAQIECBAgQIAAAQIECBAgQIAAgU4FTCZ2yqkxAgQIECBAgAABAgQIECBAgAABAuMVMJk43rGVGQECBAgQIECAAAECBAgQIECAAIFOBUwmdsqpMQIECBAgMDiBswyuxzpMgAABAgQIECBAgMDaBEwmro3ehgkQIECAwNoFfi09uP3ae6EDBAgQIECAAAECBAgMRsBk4mCGSkcJECBAgECnAjdOay9LtPwt8PNOt6wxAgT6IuC53ZeR0A8CBAgQIDAggZYXEANKR1cJECBAgACBBoFrpc4rE/s21K0qJzXWU40AgWEJeG4Pa7z0lgABAgQI9ELAZGIvhkEnCBAgQIDAygSumC29PnHWObZ46hx1VSVAYDgCntvDGSs9JUCAAAECvREwmdibodARAgQIECCwdIFLZAtvSZx9zi35kpY5wVQnMBABz+2BDJRuEiBAgACBPgmYTOzTaOgLAQIECBBYnsARafpticMW2MS8k48LbMIqBAisQcBzew3oNkmAAAECBIYuYDJx6COo/wQIECBAYLbAeVLlHxIXmF11wxq1vkKAwPgEDh9fSjIiQIAAAQIEli1gMnHZwtonQIAAAQLrFTgkm39r4iLb6MaR21jXqgQI9FfgyP52Tc8IECBAgACBvgqYTOzryOgXAQIECBDYvsCBaeKNictts6lLbnN9qxMg0E+Buo+qQoAAAQIECBCYS8Bk4lxcKhMgQIAAgcEI1BcrvDpxTAc9vmza2LuDdjRBgEB/BA5IVy7en+7oCQECBAgQIDAUAZOJQxkp/SRAgAABAu0CNfH3N4kbtK+yZc2zZunlt6xhIQECQxO4Sjq8z9A6rb8ECBAgQIDA+gVMJq5/DPSAAAECBAh0KbBXGntR4pZdNpq2rtdxe5ojQGC9Ap7T6/W3dQIECBAgMFgBk4mDHTodJ0CAAAECGwo8K4/eecMl23vwpttb3doECPRM4Lie9Ud3CBAgQIAAgYEImEwcyEDpJgECBAgQaBB4bOrcp6HeIlWuk5UOW2RF6xAg0DuBI9KjX+pdr3SIAAECBAgQGISAycRBDJNOEiBAgACBmQIPTI1HzKy1eIW6D+PtFl/dmgQI9EjgDulL3RJBIUCAAAECBAjMLWAycW4yKxAgQIAAgd4J3C09euoKelXbUQgQGLZATSL+1rBT0HsCBAgQIEBgnQImE9epb9sECBAgQGD7ArdNEy/YfjNNLdQ3Ol+7qaZKBAj0VeDG6dhF+to5/SJAgAABAgT6L2Aysf9jpIcECBAgQGAzgZtkwUsTqzyfP2izznicAIFBCDx4EL3USQIECBAgQKC3Aqt88dFbBB0jQIAAAQIDFKgrBF+Z2HfFfb9ZtneFFW/T5ggQ6EbgWmnm2G6a0goBAgQIECAwVQGTiVMdeXkTIECAwJAFrpTOvz5xwBqSqPutPW4N27VJAgS2L/D47TehBQIECBAgQGDqAiYTp74HyJ8AAQIEhiZwiXT4LYmD19jx47Lt669x+zZNgMD8ArfMKteZfzVrECBAgAABAgTOKGAy8Ywe/keAAAECBPoscGQ69w+JQ3vQyWemD/v0oB+6QIDAbIH9U+Vps6upQYAAAQIECBCYLWAycbaRGgQIECBAoA8Ch6cTb0ucvw+dSR8unfBlLD0ZDN0gMEPgj7P8wjPqWEyAAAECBAgQaBIwmdjEpBIBAgQIEFirwCHZ+lsTF1lrL/bc+CPzUH3sWiFAoL8CdY9V3+Dc3/HRMwIECBAgMDgBk4mDGzIdJkCAAIGJCRyUfN+UuGwP866PTv5lYtXfKN1DCl0i0EuBnc9RtyTo5fDoFAECBAgQGKaAycRhjpteEyBAgMA0BM6SNF+duFqP071y+ubbnXs8QLo2aYGnJ/tLTVpA8gQIECBAgEDnAiYTOyfVIAECBAgQ6ESgriT628QQvjW5PkJZ3/CsECDQH4Hbpyv36k939IQAAQIECBAYi4DJxLGMpDwIECBAYEwCeyWZ/5e4xUCSqv6+NHGRgfRXNwmMXaBui/DCsScpPwIECBAgQGA9AiYT1+NuqwQIECBAYCuBZ2fhnbaq0MNl50ifXps4ew/7pksEpiRwaJJ9TeLAKSUtVwIECBAgQGB1AiYTV2dtSwQIECBAoEWg7j9475aKPaxzyfTpFQlfyNLDwdGlSQjUF67UROJRk8hWkgQIECBAgMBaBEwmroXdRgkQIECAwIYCD8qjD99wyXAevEG6+uKEvzGGM2Z6Og6BfZJG3Wf1GuNIRxYECBAgQIBAXwX8od/XkdEvAgQIEJiawN2T8FNGkvQdksdfJlyhOJIBlUbvBeqKxLoq+Oa976kOEiBAgAABAoMXMJk4+CGUAAECBAiMQOB2yeH5I8hj1xRqQvEtiXPt+qDfCRDoXOC8afGdiaF8YVPnABokQIAAAQIEVitgMnG13rZGgAABAgR2F7hpHqir+MZ4Tj42eX0sca2EQoBA9wI3TJMfTRzTfdNaJECAAAECBAhsLDDGFy4bZ+pRAgQIECDQP4HrpEtj/8KSCybHdyWenKiPYioECGxfoL6pub71va7+PXz7zWmBAAECBAgQINAuYDKx3UpNAgQIECDQpcAvpbHXJQ7ostGetrV3+vXgxCcSN+lpH3WLwFAEbp2O/lviPom9htJp/SRAgAABAgTGI2AycTxjKRMCBAgQGI7AJdPVNycOHk6XO+npRdLKGxNvSFyqkxY1QmA6AldMqm9PvDJxoemkLVMCBAgQIECgbwImE/s2IvpDgAABAmMXODIJvi1x6NgT3SK/uk/kxxMvThyVUAgQ2Fzg4ln014mPJK63eTVLCBAgQIAAAQKrETCZuBpnWyFAgAABAiVQ37r6D4nz138mXuqjz3dJfDrxokRdrakQIHC6wOXz68sSn0rcPuEjzUFQCBAgQIAAgfULmExc/xjoAQECBAhMQ+CcSfOtiaOnkW5zlvum5l0TdQ+49yd+P3GBhEJgigJHJumHJOoqxH9J3CFRE+8KAQIECBAgQKA3Avv0pic6QoAAAQIExitwUFJ7U+Iy402xk8yullYqnpb4ZOIdO+Jd+fm9hEJgbAKHJKFjE/Xx5QpX6AZBIUCAAAECBPotYDKx3+OjdwQIECAwfIGzJIXXJK46/FRWlkF9nPOyO+L38vPUxAmJ/058fUfs+vs38thPEwqBvgnUlbfnSdQtDg7fEbv+XvdO9UmhICgECBAgQIDAcARMJg5nrPSUAAECBIYnUOfZlyfqiiNlcYGabKkJmQqFAAECBAgQIECAAIE1CngndI34Nk2AAAECoxaoq+tenLj5qLOUHAECBAgQIECAAAECkxIwmTip4ZYsAQIECKxQ4DnZ1h1XuD2bIkCAAAECBAgQIECAwNIFTCYundgGCBAgQGCCAn+SnH93gnlLmQABAgQIECBAgACBkQuYTBz5AEuPAAECBFYu8JBs8WEr36oNEiBAgAABAgQIECBAYAUCJhNXgGwTBAgQIDAZgXsk0ydNJluJEiBAgAABAgQIECAwOQGTiZMbcgkTIECAwJIEbp92/3RJbWuWAAECBAgQIECAAAECvRAwmdiLYdAJAgQIEBi4wHHp/0sSzqsDH0jdJ0CAAAECBAgQIEBgawEverb2sZQAAQIECMwSuG4qvCKx76yKlhMgQIAAAQIECBAgQGDoAiYThz6C+k+AAAEC6xS4cjb+usT+6+yEbRMgQIAAAQIECBAgQGBVAiYTVyVtOwQIECAwNoFLJaE3J842tsTkQ4AAAQIECBAgQIAAgc0ETCZuJuNxAgQIECCwucBRWfS2xLk2r2IJAQIECBAgQIAAAQIExidgMnF8YyojAgQIEFiuwHnT/D8kzrfczWidAAECBAgQIECAAAEC/RPYp39d0iMCBAgQINBrgSend2fpdQ91jgABAgQIECBAgAABAksScGXikmA1S4AAAQKjFTCRONqhlRgBAgQIECBAgAABArMETCbOErKcAAECBAgQIECAAAECBAgQIECAAIFfCJhMtCMQIECAAAECBAgQIECAAAECBAgQINAkYDKxiUklAgQIECBAgAABAgQIECBAgAABAgRMJtoHCBAgQIAAAQIECBAgQIAAAQIECBBoEjCZ2MSkEgECBAgQIECAAAECBAgQIECAAAECJhPtAwQIECBAgAABAgQIECBAgAABAgQINAmYTGxiUokAAQIECBAgQIAAAQIECBAgQIAAAZOJ9gECBAgQIECAAAECBAgQIECAAAECBJoETCY2MalEgAABAgQIECBAgAABAgQIECBAgIDJRPsAAQIECBA4XWCv03/1GwECBAgQ+IWAc4MdgQABAgQI7CJgMnEXDL8SIECAwOQFDpi8AAACBAgQ2F3AuWF3Ef8nQIAAgUkLmEyc9PBLngABAgR2E9hvt//7LwECBAgQcG6wDxAgQIAAgV0ETCbuguFXAgQIECBAgAABAgQIECBAgAABAgQ2FzCZuLmNJQQIECAwPYFTppeyjAkQIEBghoBzwwwgiwkQIEBgWgImE6c13rIlQIAAga0FfrD1YksJECBAYIICzg0THHQpEyBAgMDmAiYTN7exhAABAgSmJ3Di9FKWMQECBAjMEHBumAFkMQECBAhMS8Bk4rTGW7YECBAgsLXA17debCkBAgQITFDAuWGCgy5lAgQIENhcwGTi5jaWECBAgMD0BL4yvZRlTIAAAQIzBJwbZgBZTIAAAQLTEjCZOK3xli0BAgQIbC3w+a0XW0qAAAECExRwbpjgoEuZAAECBDYX2GvzRZYQIECAAIHJCeyfjOtG+3tPLnMJEyBAgMBGAj/LgwclTtpooccIECBAgMAUBVyZOMVRlzMBAgQIbCZQLxY/s9lCjxMgQIDA5ATqnGAicXLDLmECBAgQ2ErAZOJWOpYRIECAwBQFPjjFpOVMgAABAhsKOCdsyOJBAgQIEJiygMnEKY++3AkQIEBgI4H3bvSgxwgQIEBgkgLOCZMcdkkTIECAwFYCJhO30rGMAAECBKYo8I4pJi1nAgQIENhQwDlhQxYPEiBAgMCUBUwmTnn05U6AAAECGwnUt3b65s6NZDxGgACBaQk4H0xrvGVLgAABAo0CJhMboVQjQIAAgUkJvHZS2UqWAAECBDYScC7YSMVjBAgQIDB5AZOJk98FABAgQIDABgKv3OAxDxEgQIDAtAScC6Y13rIlQIAAgUaBvRrrqUaAAAECBKYkUOfHLyaOmFLSciVAgACB/xX4cn47KvHz/33ELwQIECBAgMAvBFyZaEcgQIAAAQJ7CtSLx7/c82GPECBAgMBEBOocYCJxIoMtTQIECBCYT8CVifN5qU2AAAEC0xE4MqnWzfe98TadMZcpAQIESuDUxNGJLyUUAgQIECBAYDcBL5B2A/FfAgQIECCwQ+BL+fkGGgQIECAwOYE69n9pcllLmAABAgQINAqYTGyEUo0AAQIEJilw/CSzljQBAgSmLeDYP+3xlz0BAgQIzBDwMecZQBYTIECAwOQFPhiBq0xeAQABAgSmIfChpHnVaaQqSwIECBAgsJiAKxMXc7MWAQIECExH4LHTSVWmBAgQmLyAY/7kdwEABAgQIDBLwJWJs4QsJ0CAAAECZzqTqxPtBQQIEBi/gKsSxz/GMiRAgACBDgRcmdgBoiYIECBAYPQCDx19hhIkQIAAAcd6+wABAgQIEGgQMJnYgKQKAQIECExe4B0ReP3kFQAQIEBgvAJ1jK9jvUKAAAECBAjMEPAx5xlAFhMgQIAAgR0CF83PTyb2I0KAAAECoxI4JdlcJvHZUWUlGQIECBAgsCSBvZfUrmYJECBAgMDYBE5MQvsnrjO2xORDgACBiQs8Mfm/YuIG0idAgAABAs0CrkxsplKRAAECBAj8YjLx43GoqxQVAgQIEBi+QF2NeLnEScNPRQYECBAgQGA1Au6ZuBpnWyFAgACBcQjUi827JX4+jnRkQYAAgUkL1LG8jukmEie9G0ieAAECBOYV8DHnecXUJ0CAAIGpC3w5AIckjpk6hPwJECAwcIFnpf8vGHgOuk+AAAECBFYu4GPOKye3QQIECBAYgUDdO/HDiUuPIBcpECBAYIoCn0rSV064KnGKoy9nAgQIENiWgI85b4vPygQIECAwUYF68fnrCS9CJ7oDSJsAgUELOIYPevh0ngABAgTWLeBjzuseAdsnQIAAgaEKfDMdPyFxs6EmoN8ECBCYqMC9k/ebJpq7tAkQIECAwLYFTCZum1ADBAgQIDBhgY8k96MTl5+wgdQJECAwJIG/TGcfMaQO6ysBAgQIEOibgHsm9m1E9IcAAQIEhiZwQDr83sQVh9Zx/SVAgMDEBD6WfK+Z+PHE8pYuAQIECBDoVMBkYqecGiNAgACBiQr/ddEdAABAAElEQVRcKHl/KHHuieYvbQIECPRdoG5NcZXEV/reUf0jQIAAAQJ9F/AFLH0fIf0jQIAAgSEI1IvTWyZOHkJn9ZEAAQITE6hjcx2jTSRObOClS4AAAQLLETCZuBxXrRIgQIDA9ATel5Tvkvj59FKXMQECBHorUMfkOjbXMVohQIAAAQIEOhDwBSwdIGqCAAECBAjsEPhUfn4/cSMiBAgQINALgQelFy/sRU90ggABAgQIjETAZOJIBlIaBAgQINAbgbr6pa6EObY3PdIRAgQITFPgkUn7idNMXdYECBAgQGB5AiYTl2erZQIECBCYrsC7k/r3Er+S8GVn090PZE6AwHoE6g2dByaetJ7N2yoBAgQIEBi3gBc44x5f2REgQIDAegV+NZt/SeKs6+2GrRMgQGAyAj9KpndOvHIyGUuUAAECBAisWMBk4orBbY4AAQIEJidw2WRcL2ovOrnMJUyAAIHVCnw2m7tN4uOr3aytESBAgACBaQn4NudpjbdsCRAgQGD1Ap/IJn8p8Rer37QtEiBAYDICdYytY62JxMkMuUQJECBAYF0Crkxcl7ztEiBAgMAUBW6VpP80cZ4pJi9nAgQILEHgG2nzXolXLaFtTRIgQIAAAQIbCPgClg1QPESAAAECBJYk8B9p988T50pcMeFNvSAoBAgQWECgvmSljqe3THxsgfWtQoAAAQIECCwo4EXMgnBWI0CAAAEC2xQ4Jus/O3HlbbZjdQIECExN4MNJ+L6J908tcfkSIECAAIE+CLhnYh9GQR8IECBAYIoC9SL4qom7JP5zigByJkCAwJwCdaysY2YdO00kzomnOgECBAgQ6ErAlYldSWqHAAECBAgsLrB/Vr134qGJQxdvxpoECBAYpcC3ktUTE89NnDTKDCVFgAABAgQGJGAycUCDpasECBAgMHqBsyXD+yQemKj7KioECBCYssC3k/zTEs9JfH/KEHInQIAAAQJ9EjCZ2KfR0BcCBAgQIHCawEH5cY/E/RJHnPaQfwkQIDAZgS8n02cl/izxg8lkLVECBAgQIDAQAZOJAxko3SRAgACBSQrUvY2vl7hj4taJgxMKAQIExijwvST194mXJd6RODWhECBAgAABAj0UMJnYw0HRJQIECBAgsIHAWfLYdRI3Sdw0cfGEQoAAgSELfDqdf2PiTYn3JE5OKAQIECBAgEDPBUwm9nyAdI8AAQIECGwicME8XpOL103cLHF4QiFAgECfBb6ezr0u8e5ETR76JvsgKAQIECBAYGgCJhOHNmL6S4AAAQIE9hSo8/k5E+dOHLbj52a/1/L9EgoBAgS6EDgljZyQ+OYuPzf7/cTU+XlCIUCAAAECBAgQIECAAAECBAgQIECAAAECBAgQIECAAAECBAgQIECAAAECBAgQIECAAAECBAgQIECAAAECBAgQIECAAAECBAgQIECAAAECBAgQIECAAAECBAgQIECAAAECBAgQIECAAAECBAgQIECAAAECBAgQIECAAAECBAgQIECAAAECBAgQIECAAAECBAgQIECAAAECBAgQIECAAAECBAgQIECAAAECBAgQIECAAAECBAgQIECAAAECBAgQIECAAAECBAgQIECAAAECBAgQIECAAAECBAgQIECAAAECBAgQIECAAAECBAgQIECAAAECBAgQIECAAAECBAgQIECAAAECBAgQIECAAAECBAgQIECAAAECBAgQIECAAAECBAgQIECAAAECBAgQIECAAAECBAgQIECAAAECBAgQIECAAAECBAgQIECAAAECBAgQIECAAAECBAgQIECAAAECBAgQIECAAAECBAgQIECAAAECBAgQIECAAAECBAgQIECAAAECBAgQIECAAAECBAgQIECAAAECBAgQIECAAAECBAgQIECAAAECBAgQIECAAAECBAgQIECAAAECBAgQIECAAAECBAgQIECAAAECBAgQIECAAAECBAgQIECAAAECBAgQIECAAAECBAgQIECAAAECBAgQIECAAAECBAgQIECAAAECBAgQIECAAAECBAgQIECAAAECBAgQIECAAAECBAgQIECAAAECBAgQIECAAAECBAgQIECAAAECBAgQIECAAAECBAgQIECAAAECBAgQIECAAAECBAgQIECAAAECBAgQIECAAAECBAgQIECAAAECBAgQIECAAAECBAgQIECAAAECBAgQIECAAAECBAgQIECAAAECBAgQIECAAAECBAgQIECAAAECBAgQIECAAAECBAgQIECAAAECBAgQIECAAAECBAgQIECAAAECBAgQIECAAAECBAgQIECAAAECBAgQIECAAAECBAgQIECAAAECBAgQIECAAAECBAgQIECAAAECBAgQIECAAAECBAgQIECAQI8F9upx34bStbOmo4c1RtVVCBAg0IXAqWnk24kTGuLE1Kn6yrgFzp70Ws9H+46bQnYECKxQ4CfZVsu5qOp8d4X9sqn1CJw5mz1nYqvz0bl3LK96VV8hQIBAFwI/SiOt56Oqq2xDwGTi/Hg1IXj1xHUTN0pcNaEQIECgzwL14u3ViXcn3pP4fEIZvsChSeHaiTof3TxxVEIhQIBAnwW+mM69NlHnoopvJZThCxydFK6TqPPRLRP15pZCgACBPgt8MJ17S6JeH70vYXIxCPMUk4ltWpdOtZskbpyoF277JRQCBAgMVeDL6fibdsQ78vMHQ01kYv3eO/kek6jzUcUVE87jQVAIEBikwM/T639J7Dwf1Yu5nw0yk+l1+qCkfL3EzvPREdMjkDEBAiMSOCW5/FNi5/noUyPKbWmpeBGyOe3FsugOO+Kim1ezhAABAoMWOCm9f0Pir3b8PHnQ2Yyv83Wevkaizke3TdTViAoBAgTGKFBXKf5dos5H703UZKPSH4GzpCvHJep8VD/3TygECBAYo8Bnk1Sdiyo+M8YEu8jJZOIZFcvjZokHJOoyfYUAAQJTEqh7MP5Z4lmJr08p8R7mWi/S7pr4vcTFe9g/XSJAgMAyBerF2zMTL0rUm17K+gQOz6bvl7hH4lzr64YtEyBAYC0C785Wn554XcKbXLsMgcnE0zDK4VaJP05c/rSH/EuAAIHJCtQLtxcknpT478kqrCfxA7LZeyYekjjverpgqwQIEOiNQL2x9eTE8xM/7k2vptGROgf9QaLOSa5CnMaYy5IAgc0F/jWLHpN4VcKkYhBMJp52mf7jYnGFhEKAAAECpwvUpOJzE09MuEn+6S7L+K2+XfnuiUckTCIuQ1ibBAgMWaAmFevv9f+bOGXIiQyg73U7jYcm7p0wiTiAAdNFAgRWKlD3+q2/1+s2UZMuU55MvEpG/qmJ+uYxhQABAgQ2F/heFtWE4jMSrgzZ3GnRJb+WFZ+QqG/DVAgQIEBgc4EvZNHDEi/fvIolCwrUxOHvJ2oi8eAF27AaAQIEpiLwniT6oMSHppLw7nlOcTKxrvioF8W/kZhi/rvvA/5PgACBVoEvp2KdNF/RuoJ6WwpcMUvr/pTX2rKWhQQIECCwu8A/54H7Jj66+wL/X0jgNlmrLrI4YqG1rUSAAIFpCtTHnf8yUW/CTO7WUFOaTDtzBrgu13984myJLkt93OLridqBNvtZy36YUAgQGK5AffTnRombJI5N1P3tpljelqR/N/G5KSbfQc51xUd9XK/OSXVu6rLUeWbWuegbqXNylxvVFgECKxeoK5nrXFRxtUTXx5I02ftyanr4p4k/TNQV9Mr8AhfJKs9L3HD+VWeu8Z3U2PV8tOvvO18vnZA6P5vZkgoECPRVoM49v5TYeT66eF87uuR+fT/tPzzx3ESdm5QRCVwyubw/UTPHXcSP0s7bE/VZ+bqiZJ+EQoDA+ATqBFkv0h6V+ECi/uDt4hgyhjbq4851leIUX8Am7YVL/bH1n4mu9oH6Bu6/T9wvcdmEQoDAOAX2T1o3TjwzUd903NUxZAztfDUexyWUdoE6d9c5vM7lXe0DX0xbL0rcOXGBhEKAwDgF6lvd75CoK/K+mejqGDKGdmrOqeaelBEI1JWX9QKrixNlvXNWJ8ibJeoPOoUAgXEKHJa07pR4WaKe92M4sS0zh3+M0REJZWuBs2bx8xNdjMXn0k59HO2aCZO5QVAIjFSgrhq7b+KNiXoju4vjx5jb+LMYHZhQthaoc3adu7e7L9TVN+9L/EFiqlcjJXWFwOgF6m/NqyYemajJMhdXbH38rLmnmoOa0qeAk+64yjmSzmsT2z1R1sf5bpVw9WEQFAIjFKgT5DGJRyc+mHCCnP+4WR9lukVC2VjgEnn4U4ntnI9Oyvr1DvA1EgoBAuMUOCBp1dXLdS/Vzya2c8yY6rr/FrdLJZSNBepcXefs7ewf9UbrExNHJRQCBMYpULd2umPipQkXVyx2zKy5qJqTUgYmUJeWbuePsHqn7VWJujm+QoDA+ATOnZR+I/FXiW8ltvNHtXVP86vj5qMS3oULwi6lrmave3ktup/Uu5s1sXD+hEKAwPgELpqU6gqGNyXq+b7oscJ6p9vVvau8wRWEXUqdmx+VqHP1ovtK3fPwAYm60l4hQGBcAnVxxdUSj0p8IOHiisWPlbseY2tOquamlIEIXDv93M47bm/M+iYRBzLYukmgUWDv1Lt64jGJDyW288f0ricIv+95oq2r5/ZNKKd9Sc2if4ydEsD6WPT5QBIgMCqBA5LNTRPPTtQtC5xHlmNQx976iLhy2jm5zs2L7mvfzroPSdS+qxAgMB6BXW/t5OKKxY+Rs46tNTdVc1RKzwVukP79KDFrQDda/pGs98sJhQCBcQicJ2ncOfHXifpDeKPnvceW4/KaeO+XmHKpF16L7l91ZXxdraQQIDAOgYsljd9LvDnh6sPFj42LHFMfNo5daOEs6lxc5+RF7Or2Gk9JnD2hECAwfIHdb+3k4orFjo2LHE9rjqrmqkZVxvRxtLqP1D8k5n3XrCYZ6g+NP0/UE0o5XaD+AKlva9oqpj5hcLqW3/oiUMe1ukddXWE8pmNcX3xb+/F3qXj7xBSPq/dJ3nXV0bzl37PCfRNvn3fFCdQ/MDludS46JMvrCmSFQJ8Eap+8auLCferUBPtSE7l1u4iplZo4+JvEry2Q+BuzTn38/vMLrDvmVervyoMTW52PavLV359j3guGmVv9HXWdxDmH2f1R9LreTKwJxX8eRTZJYiwHuvoGsRqUeZ8c9W2t90/UZb3Kae88XjMQ103cMHGFxFj2kaSiECCwYoFnZnt1jJ1SuVWSfUWiXsS1lvpI8+MTT0j8pHWlkdere0TWuajiRokjEgoBAgQWEfh5Vrptoo7NUyrPSLI1kTpP+UYq15ta9YagctrroPpCn5qEOTZRr4/OkVAIECCwiMCJWakugvv0Iiv3bZ0xTBTVNw29P3H0HLgnpO7dE6+ZY52xVr18Eqt79xyXOCbhyo4gKAQIdCZQL0qe01lr/W7oKuneuxPzXCH/idS/U+LjiSmXfZP8tRJ1Lqpz0iUTCgECBLoSqI/s/nLiA1012PN2FrlC/pXJ6Z6Jb/c8t2V3r648/JVEnYtukjg8oRAgQKArgbriu+ZdXNDWleiC7dSLj3rhVu84tkbVP29iyuVCSf6PEm783b7ftO5f6jG1D5xxH/hpjjX1R/nYS11J97XEPOP/gtTff+wwM/K7cpbXZHO9eJ3HTl1e9gH7wLz7wNdznLlgYuylzrl17m31qYnW3xk7yoz89sny/5Ooq1dPTrTaqcfKPmAfWGQfqDmpmstS1ijw/Gx7nsF7XurXyWKqpT62XB9b+FliHjd1edkH7APb2Qe+k2PORRJjLTUh+MFEq1F9rPkeY8VoyGuv1Ll5oq4QajVTj5V9wD7QxT7w4Rx3xvwmTp1r65zbalUTrHWFzFRL7Qv3SXwl0WqmHiv7gH2gi32g5rKUNQn8VrY7zyA+bE397MNmL5tO/P2cXvPYqjvfvsiL1xT3gfo471n7cEBcQh/+fI7j6w9Ttz42NdVSV358NDHF54Ccjbt9oB/7wItHegCuc2yda1v3s/qE0lEjtZiV1n6pUJOI836ioNVWvfb9kBWrKe8DNaelrFig7vNX34bTuuM9eMX968vmjkhHXpKob1NttVKPlX3APrCsfaCOR2Mr87yxVeet648NoDGfutn0exPL2re0y9Y+YB+YZx+4W+Oxa0jV6hzbavCF1L3AkJLrqK91ZfydEl9KtFqpx8o+YB9Y1j5Qrw1qbktZkcBB2c6nE60D+uQV9atPmzkwnXlsYp4J11ZP9dr3PVas7AN77gN37dPBcpt9uVTW/1GiZZzr9hK/us3tDXH1uj/Z3yRajNThZB+wD6xqH6hj92WGeFDdpM91bm21OyF1x3zrkU2IznT1LPjQHE6tnuq173usWNkH9twHam6r5riUFQi8KNto3Qnr/oD1DtSUys2S7JcTrUbqsbIP2AdWuQ/8IMeni47goHyW5PCvcxxrHziCnOdJYZ9Urk8F1Me6V7l/2RZv+4B9oHUfqI8Ej+H+iXVOrXNrS971ZSt1pfiUyjmT7AsTPqnVto+07EfqsLQPdLsP1BzX4MrQJtpuFeG6919LqXsyXStRV+dNodSJsr4R89c7Trbeua13ML+5I3b/vf4oUQj0TeDM6VA9J86dOGzHz11/r2VDO/6ly6MpH0wm9WKmrtYbanlqOt46QVh/IPz2UBNdoN91tc9fJK60wLpbrfLdLKxz0e7noXrsW4mfJhQCfROob2s8NFHnoF3PQzt/P7hvHZ5Yf45Pvg8YcM57p+//nLhqYw6/kXovbaw7hmq3SBIvSJynw2RqUvLExGavjb6TZVVHIdA3gQPSoZ3nnl1/7vy9livrE7h1Nv2q9W1+3FuuP8S+kWiZBa+De320airl2CT6X4kWm1l16iqStyYelrhKQiEwRoGaYKw/qGuS54uJWc8Ly7s3qmPMUMs10/GaCG3ZL96XenWj96mU+ybRepOpxWZWnTqXvzxxr8RRCYXAGAUulqTqeVNvln87Met5YXm3RjXpc+3EUEudS1v3iXoTbCqlJkX+LNFqM6veZ3e09+v5eUhCITBGgasnqUck3p5wu7Tujh+zji87l9dcV815KUsQeFna3Am91c+6MuF6S9h+X5v8g3Ss9UXtZm71DlpdRVIfka6P7ikEpiZwyST8R4l5Pra62fPJ423H6ppwuvgAd7Q6Rv5HomWc64+C8w8wx0W6fGBW+ttEi8tWdb6UNuoFb/1Bu1dCITAlgbqq/jqJZya+mtjquWJZdz6fjvUQP+5c59DWN2/elbp1FeMUSr351MXfcx9KOw9NTPH+klPYT+S4tcABWXyrRM3BfDfhnLMag/JWOhb4lbTXugPXhMAUyr5J8sWJVpeN6n0q698lYQIxCAqBHQJXzM/6RsSfJDZ63nisO5d3xXho5VHpcMs+UFe73HBoyS3Y38Oz3kcSLS6b1Xlz1r/Bgtu3GoExCtRk+nGJdyU2e954vDubx8R5aOVd6XDLPlBvbJ13aMkt2N9jsl7dCqPFZaM6J2fduqLxUgmFAIHTBGpi8e6JzyQ2et54rFuXmvtSOhLYL+207rjvSt16V3fspUxek1j0ifvvWfd2CVd9BEEhsIlAvRNdk4p1tfOizzXrzba70yb+fXz46HTqpMb94Ul9TGAJfbpA2qyPfy26r78169aLP4UAgc0FrptF70ks+jyz3my7OrYP6Qq0One2jutNUncK5dgkWbdranXZtd4pWe/PEhdKKAQIbCxQVzf/RuJziV2fP37v1qPmvmq+R+lA4CFpo2UHrctvp3ACqMnSv2s02d3ta1nvbompfMwhqSoEti1w6bTwhsTuzyf/78bkv2J74LZHaTUNvLpxP/iX1JvCHwF179H6eOAiz4W6kvF6CYUAgXaBm6bqJxOLPOesM9vtte1Dsdaadc6sc2fLmD53rT1d3cavlk39oNFkd7dXZL0hTSSvTtWWCGwssE8e/t3ENxO7P5/8vxuTmgNTtilQN6D8n0TLTvnb29zWUFZ/RqPHrmb1bltdJXPQUJLUTwI9FLhx+lTvFO363PJ7Nx6P6uF4796l6zaOfR1vL7/7yiP8f33k5X2JeZ8DJ2SdelPLlfFBUAgsIFBvCN83Ufe7nvf5p/5ss7q6re/lUelgy1h+PvWG8mbddsyPzsp1bmkx2bXOJ7LOdbezYesSmLjA2ZN/zU24NdT8x59dj0Ub/V5zYL6MZZtPsKdn/Y1wd3/s7dvczlBWv3ejx64+H8w6lxlKgvpJoOcCdX/RxyecNNuOzbsei7b6/fsxravc+lxaJ84e1+ckOupbTQS+PLHVmG607KVZ51wd9UEzBKYucHgA6hugN3queWxxlw/0fMeqc2WdM1vG+AY9z6WL7p0jjfxHo8dOs/pI+8MT+yQUAgS2L1D3m/9YYudzzM9uLGouTFlQoG4U/OPErJ2xbpR7sQW3MaTV6uNg80xg/DT1H53wkeYhjbK+DkXgqumo+4XMPj7POn7vury+wbev5bh0bNe+bvZ7XQUyxG8Endf9jxs9djrVFVS3mXcj6hMg0CRw59RqnVza+Zz0c+tj+s2a5NdTqc6VLeP3svV0b6Vbrdc4b2n02Gn2qdS/3Ep7aWMEpiGwb9J8YuLUxM7nm5/bs6i5sJoTUxYQaL0qsT6+O/ZS94L8VqL1Cfnt1J3Cu5FjH3f59VugLu1/XaL1eane1lY/jGVfL+d/f+M43yL1xl7qRfY8fyj+a+ofNXYU+RFYs8Alsv1PJ5xnujGoT/X0sdQ5ss6Vs8b5B6lzvj4m0HGf6jXgLItdl/9t6p+14z5ojgCBMwrUG/D1Ed1dn3t+X9zD1Yln3L+a/ndIatWJcNaO983UObipxeFWqpv41x81syx2Lv9i6k7hSs3hjqiej0mgvhDpOYmdzz8/t2fxqB7uHNdtHN939rDvXXepJgXrKsPW/fxtqXtQ153QHgECGwrU387/lGh9fqq3tdWxGyqv98FHNY7vH6+3myvZer15N88+/ISV9MpGCBAogUsnvpqY5zmq7sZeNSdW53dlDoHWb3C+/xxtDrXq8el465Pry6lbVzEqBAisVmCe52nr83mK9eoNorovZZ/Kq9OZlrGob5Icc6mPr8zzxlZ99KxvYznm8ZEbgRI4a+IfEy3HLHW2durbNzvX8bTOkbPG7Rupc2BizKVe65yYmGWxc/mjx4whNwI9FagvRvqvxM7noZ+LW/hm5zl28rrS54sNO97XUmfs96a6cXJs/ThZfbT54gmFAIHVC+yVTb404US5fYM7rX74Nt1ivWD5WcO4vn7TFsaz4AkNDjv3/w+l7thfzI5nZGUyNoH6QopPJnY+H/1czKKO/Ucm+lLq3Ngylg/sS4eX1I96nfieRovy+tMl9UOzBAjMFrhsqnw30XLsUmdzpy/GsI59SoPAjVKnZWca+8myLmetCdMWi1NS77oJhQCB9QnULQlcEdJ2zNrquFYvEvpS6mqGrfq6c9nV+9LhJfXjmmm3ZVK1PL6SqG+ZVQgQWJ/AEdl0XaG28xjl52IWj13fEO6x5ZYJtLqwYOxv5Dx4jv36zam79x6SHiBAYJUCNbdTXwzrPLQ9g3JUGgT+KnVm7Ww1w322hraGXOUvGhx2Ot1zyInqO4ERCRyWXL6c2Pnc9HMxiwv3YJ/YK334YsNY/nMP+rrMLtQnAFq/2OFHqXulZXZG2wQINAtcKzXrzWbnocUN6nxe54J1lzontozj49fd0SVv/+Jp/6RGizpvnX3J/dE8AQJtAnVrupZjmDqbO9UcmTJDoO710vItZc+e0c7QF98wCbQ+mV449GT1n8DIBH4p+bT+sdv6PJ9avT/swT5xjfShxf3Xe9DXZXahXpy2OFSdOy+zI9omQGBugXtnjdbnr3obW9WV2esudU6cNT515c8F1t3RJW6/JnXfnZjlUMvrCwsulVAIEOiPwMvSlZbnrzobO9UcWc2VKVsI/GqWtexA9fn7sZb6qGTrVSD/mrpjv2/kWMdZXuMW+N2k13IsU2djp4/2YPd4WsMYfit16pg91lJXgZycaNlPvbE11r1AXkMX+NvG53DL83yKdeoL1tZd6pw4y/516+7kkrdfb1bNMti5/E5L7ovmCRCYX6BuwfDviZ3PUz/nt6i5MmULgb/Islk71se2WH8Mi1rvBVIfJ7vkGBKWA4GRCrwqec06nlm+udG6r7D4bMP4PXek++7OtN7YYFD78H8kvFu6U81PAv0SqI96finhfLOYwefWPJx1LmwZu9usuZ/L3PxBafy/Gx1essyOaJsAgW0JXCFrt75J3XLcm1qdmitTthBoOVH8wRbrD33RuZLA/yRanhi/N/Rk9Z/AyAUOS35ugN92PNvomPfba9w/Wu9Pde019nHZm75BNrDRuOz+2E9T7yrL7oz2CRDYlsAvZ+1TE7s/f/2/zeTobelvb+U6F84ap++nzgHb20yv1350g0EZfSVxcK8z0TkCBB4aglnHNMs3Nqq5MmUTgbq3RcuOc/FN1h/Dw09uNPin1NtrDAnLgcDIBW6b/FqOa+rs6fTSNe4bd2sYt2+mzpnX2Mdlb/qDDQa13z5x2R3RPgECnQg8L6041yxmcPdORmCxRupcOGvcXrFY04NYq96YrcnSWQa1/CaDyEgnCUxboL5h/cOJlue0Ons61ZyZsoFAnahn7TCf32C9sTxUJ8sfNhj8JHUuPZak5UFgAgJvSI6zjm2W72n0pTXuG/+vYczWOdm5bJrjGvKvffaLiTFfDbNsZ+0TWKVAXbHV8gkg56M9z0cvXuVA7batL+X/s8ZknVfy79bdzv/7pIb8y+dvOt+yBgkQWJbAldLwzxKzjm2W72m0zje3lrU/dNLu/23YoarOWMvjkljLE+b4sQLIi8BIBS6SvNwfpO34tvsx8Nxr2ic+le3u3pfd/3/XNfVtFZt9b0P+5XGrVXTGNggQ6Exgni+x2P2YN+X//1tnIzBfQ3UObHE/cr5mB1O77vf5vcQsg7oY4/yDyUpHCRAogecnZj23Ld/TaMzzYdt6ZnyoYYf6zW1tob8r15Ud307MesKcmDqH9DcNPSNAYBOBp+fxWc9vy/c0uuEmnst8eP80XvcBnDUeF1tmJ9bY9tUaci+bd6+xjzZNgMBiAnWLnI8kZh3fLD+jUV1Bs46rsOscOGss/it1xloelMRm5V/LHz1WAHkRGLFAvVnS8mZByzFgSnVqzkzZQOAHeWzWjnCZDdYbw0O/1ZB72TxsDMnKgcAEBQ5Nzq33/Jl1HJzS8nV80dTlMlazjL+bOvWifIzlJUlqVv61/JpjTF5OBCYgcOPk2PIcV+eMTpdfw75R58BZ4/CaNfRrFZusc+wXGvKvizHqI/wKAQLDE3hMujzrGGf5GY1qzqw3pS83jz88IgfOUPlJlv/HjDpDXXy3ho5/J3We3VBPFQIE+ifwrXTpef3rVu97VB8RX3Vp2eYn06n642Zs5RxJ6NcaknpH6tRHoRUCBIYn8OZ0ub5gSZlPoOXcMF+Ls2u3bPMTs5sZZI3rp9dHNfT8GalTVzcpBAgMT+D4dLkutlDaBWrOrObOelH6Mpl4oQaNeneqPno2tlJ/KFy9Iak/TZ1ezUQ39FkVAgROF3hmfq03RZR2gZZzQ3trbTVbtvmZtqYGV+s26XF9zHtWefKsCpYTINBrgaf0unf97FzLuaHrnrdsc6zno99owPxR6jy3oZ4qBAj0U6AulnphP7vW6161nBtWkkBfJhNbZle/vBKR1W/ktg2brHu11GSiQoDAcAW+lq6/YrjdX0vPW84NXXesZZtjPR/drgGzXri+taGeKgQI9FfgVenaV/vbvV727Dxr6NVUz0f7xfqWDd4vS526n7xCgMBwBZ6Tro/x0z7LHJGWc8Myt/+/bfdlMvGc/9ujzX/5xuaLBr2k5WT5pmToj75BD7POE/iFgHff5tsR1vGFUy3no//f3n2AWVdVBwPGhyagYsGSxIiKBRUBe28RsQVrxJKIqNGYSADFEhXFrkksRI1R7A1jIoo9AhpRCZaoJKIGO0b/2LECgsC/FnwjX7kzc247Z+993v08i2/m3nP2XvvdM+yZNeee+/3pplHF0TtHlnfskGl+DfuhrwOUQwgULJB/pH5DwfmVmFqXvWHReXfZA1vcj/4oILvcB9G7mi76K05/BPoX+GYM+dH+h616xCH2o4lgpRQTLzUxu00fzMtgW2u7xIRu2mFSb+1wjEMIEChf4N8jxZbfeXHRK9BlbxhizBb3o30Ccpt1MLOIePQ6x3iaAIE6BPxsOd062Y+m85rn6HyToPVaXiXvXU3XU/I8gToE7EfTrdMQ+9HEDEspJubl7Ou1vC9Ga+2OMaF8t7K12tnx5PvXOsBzBAhUI5DFmHdVk+3wiXbZGxadZZcxW9yP8kqQ9drJcYBi+HpKnidQh0AWY1p9845lrECXvWHR43YZc6z70TsXja0/AgQGE8h3pW/xvTGWBdplb1jW2Jv0W0oxcZOkVvkkX5LRWrtNhwmdGMf8usNxDiFAoA4BfxyoY53WynKs+9EH1kLxHAEC1Qn4nq5uybZI+PwtHqn7gbzlxh4dpuBrtwOSQwhUIpCv+PmPSnKV5kYCpRQTz9kop9U+3Ha1Jyp+vMtLnD9S8fykToDAlgKfiIe8q/OWLpMeGcJpjPtRvoPzDSYtwGaPuafNZiA+JVC5gJ8xuy9gl72he2/djuyyB653e4puI5Vz1I0jlfVetfWrOOYz5aQsEwIEFiBgP+qOOMR+NDG7UoqJZ03MbtMH85ed1lqXv7yp0re26uYzdoH8/90Xxo7Qcf5d9oaOXXU+rMuYxby8oPOs1j5w93h6vV9IfxPHfG7tbjxLgEBlAp+KfFu7sm1ZS9Blb1j02F3GbG0/umEHxCwkeklkByiHEKhIQM2j+2J12Ru69zbHkaUUE/M+Yuu19f5Ktd75pT1/pUjosusklS6nrHOMpwkQqE/g8/WlPEjGQ/yS22U/GgRjiYNep0Pfp8YxXa6S6dCVQwgQKEQgr/D6WiG5lJ7GEHvDEHvg0OvQZT/yM9TQq2R8AosX8H3d3XSI/WhidqUUEycm1/iDu3aY33fiGPdL7ADlEAKVCXylsnyl27ZAl/3oy20TmB2B0QrYj0a79EVOvMt+5Gu2yKWTFIG5BH4aZ/9wrh6c3LuAYmLv5L8b8Cq/+2j1D761+lOeIUCgYgHf2xUvXoOpd9mPvt3gvE2JAIGttrIf+SooSaDLfuRrtqQVkwuBxQn43l6cZS89KSb2wjxxkMtNfHTTB7+/6ac+I0CgEQHf240sZCPTuHyHefia7YDkEAIVCvjernDRGk7Z70cNL66pEVhHwH60DlBpTysmDrciO3YY+mcdjnEIAQL1Cfjerm/NWs7YftTy6pobgbUF7Edr+3i2XwH7Ub/eRiNQkoD9qKTV6JCLYmIHpCUdsnWHfvPdMzUCBNoT8L3d3prWPCP7Uc2rJ3cC8wnYj+bzc/ZiBexHi/XUG4GaBOxHNa1W5KqYONyCnddh6NbewbrDlB1CYBQCvrdHsczVTPK3HTL1NdsBySEEKhTwvV3hojWcst+PGl5cUyOwjoD9aB2g0p5WTBxuRc7qMPQlOxzjEAIE6hPwvV3fmrWc8dkdJrd9h2McQoBAfQL2o/rWrOWM/X7U8uqaG4G1BfysubZPcc8qJg63JOd3GFp1vgOSQwhUKOD/vRUuWsMpd9mPfM02/AVgaqMW8LPmqJe/uMl32Y98zRa3bBIisBABP2suhLG/TixYf9ZGIkCAAAECBAgQIECAAAECBAgQIFC1gGJi1csneQIECBAgQIAAAQIECBAgQIAAAQL9CSgm9mdtJAIECBAgQIAAAQIECBAgQIAAAQJVCygmVr18kidAgAABAgQIECBAgAABAgQIECDQn4BiYn/WRiJAgAABAgQIECBAgAABAgQIECBQtYBiYtXLJ3kCBAgQIECAAAECBAgQIECAAAEC/QkoJvZnbSQCBAgQIECAAAECBAgQIECAAAECVQsoJla9fJInQIAAAQIECBAgQIAAAQIECBAg0J+AYmJ/1kYiQIAAAQIECBAgQIAAAQIECBAgULWAYmLVyyd5AgQIECBAgAABAgQIECBAgAABAv0JKCb2Z20kAgQIECBAgAABAgQIECBAgAABAlULKCZWvXySJ0CAAAECBAgQIECAAAECBAgQINCfgGJif9ZGIkCAAAECBAgQIECAAAECBAgQIFC1gGJi1csneQIECBAgQIAAAQIECBAgQIAAAQL9CSgm9mdtJAIECBAgQIAAAQIECBAgQIAAAQJVCygmVr18kidAgAABAgQIECBAgAABAgQIECDQn4BiYn/WRiJAgAABAgQIECBAgAABAgQIECBQtYBiYtXLJ3kCBAgQIECAAAECBAgQIECAAAEC/QkoJvZnbSQCBAgQIECAAAECBAgQIECAAAECVQsoJla9fJInQIAAAQIECBAgQIAAAQIECBAg0J+AYmJ/1kYiQIAAAQIECBAgQIAAAQIECBAgULWAYmLVyyd5AgQIECBAgAABAgQIECBAgAABAv0JKCb2Z20kAgQIECBAgAABAgQIECBAgAABAlULKCZWvXySJ0CAAAECBAgQIECAAAECBAgQINCfgGJif9ZGIkCAAAECBAgQIECAAAECBAgQIFC1gGJi1csneQIECBAgQIAAAQIECBAgQIAAAQL9CSgm9mdtJAIECBAgQIAAAQIECBAgQIAAAQJVCygmVr18kidAgAABAgQIECBAgAABAgQIECDQn4BiYn/WRiJAgAABAgQIECBAgAABAgQIECBQtYBiYtXLJ3kCBAgQIECAAAECBAgQIECAAAEC/QkoJvZnbSQCBAgQIECAAAECBAgQIECAAAECVQsoJla9fJInQIAAAQIECBAgQIAAAQIECBAg0J+AYmJ/1kYiQIAAAQIECBAgQIAAAQIECBAgULWAYmLVyyd5AgQIECBAgAABAgQIECBAgAABAv0JKCb2Z20kAgQIECBAgAABAgQIECBAgAABAlULKCZWvXySJ0CAAAECBAgQIECAAAECBAgQINCfgGJif9ZGIkCAAAECBAgQIECAAAECBAgQIFC1gGJi1csneQIECBAgQIAAAQIECBAgQIAAAQL9CSgm9mdtJAIECBAgQIAAAQIECBAgQIAAAQJVCygmVr18kidAgAABAgQIECBAgAABAgQIECDQn4BiYn/WRiJAgAABAgQIECBAgAABAgQIECBQtYBiYtXLJ3kCBAgQIECAAAECBAgQIECAAAEC/QkoJvZnbSQCBAgQIECAAAECBAgQIECAAAECVQsoJla9fJInQIAAAQIECBAgQIAAAQIECBAg0J+AYmJ/1kYiQIAAAQIECBAgQIAAAQIECBAgULWAYmLVyyd5AgQIECBAgAABAgQIECBAgAABAv0JKCb2Z20kAgQIECBAgAABAgQIECBAgAABAlULKCZWvXySJ0CAAAECBAgQIECAAAECBAgQINCfgGJif9ZGIkCAAAECBAgQIECAAAECBAgQIFC1wDZVZy95AgQIECBAgECZAgdHWpdYJ7UL4vmXrXOMpwkQIECAAAECBAgUJaCYWNRySIYAAQIECBBoROAfOs5DMbEjlMMIECBAgAABAgTKEPAy5zLWQRYECBAgQIAAAQIECBAgQIAAAQIEihdQTCx+iSRIgAABAgQIECBAgAABAgQIECBAoAwBxcQy1kEWBAgQIECAAAECBAgQIECAAAECBIoXUEwsfokkSIAAAQIECBAgQIAAAQIECBAgQKAMAcXEMtZBFgQIECBAgAABAgQIECBAgAABAgSKF1BMLH6JJEiAAAECBAgQIECAAAECBAgQIECgDAHFxDLWQRYECBAgQIAAAQIECBAgQIAAAQIEihdQTCx+iSRIgAABAgQIECBAgAABAgQIECBAoAwBxcQy1kEWBAgQIECAAAECBAgQIECAAAECBIoXUEwsfokkSIAAAQIECBAgQIAAAQIECBAgQKAMAcXEMtZBFgQIECBAgAABAgQIECBAgAABAgSKF1BMLH6JJEiAAAECBAgQIECAAAECBAgQIECgDAHFxDLWQRYECBAgQIAAAQIECBAgQIAAAQIEihdQTCx+iSRIgAABAgQIECBAgAABAgQIECBAoAwBxcQy1kEWBAgQIECAAAECBAgQIECAAAECBIoXUEwsfokkSIAAAQIECBAgQIAAAQIECBAgQKAMAcXEMtZBFgQIECBAgAABAgQIECBAgAABAgSKF1BMLH6JJEiAAAECBAgQIECAAAECBAgQIECgDAHFxDLWQRYECBAgQIAAAQIECBAgQIAAAQIEihdQTCx+iSRIgAABAgQIECBAgAABAgQIECBAoAwBxcQy1kEWBAgQIECAAAECBAgQIECAAAECBIoXUEwsfokkSIAAAQIECBAgQIAAAQIECBAgQKAMAcXEMtZBFgQIECBAgAABAgQIECBAgAABAgSKF1BMLH6JJEiAAAECBAgQIECAAAECBAgQIECgDAHFxDLWQRYECBAgQIAAAQIECBAgQIAAAQIEihdQTCx+iSRIgAABAgQIECBAgAABAgQIECBAoAwBxcQy1kEWBAgQIECAAAECBAgQIECAAAECBIoXUEwsfokkSIAAAQIECBAgQIAAAQIECBAgQKAMAcXEMtZBFgQIECBAgAABAgQIECBAgAABAgSKF1BMLH6JJEiAAAECBAgQIECAAAECBAgQIECgDAHFxDLWQRYECBAgQIAAAQIECBAgQIAAAQIEihdQTCx+iSRIgAABAgQIECBAgAABAgQIECBAoAwBxcQy1kEWBAgQIECAAAECBAgQIECAAAECBIoXUEwsfokkSIAAAQIECBAgQIAAAQIECBAgQKAMAcXEMtZBFgQIECBAgAABAgQIECBAgAABAgSKF1BMLH6JJLgEgctGn0dGbLeEvnVJgAABAgQIECBAgAABAhcJHBz/XB0GAQJtCSgmtrWeZrO2wNbx9GMivhZxSMQlIjQCBAgQIECAAAECBAgQWI7AftHtVyKeE7HTcobQKwECfQsoJvYtbryhBO4UA38+4p8idhkqCeMSIECAAAECBAgQIEBgZAKXjPkeHnFaxJ9GuKgjEDQCNQsoJta8enLvInCNOOiYiI9G7NnlBMcQIECAAAECBAgQIECAwMIF/iB6fGvESRE3W3jvOiRAoDcBxcTeqA3Us8ClYrznReQl9ffreWzDESBAgAABAgQIECBAgMBkgVvFw5+OeEPEVSYf4lECBEoWUEwseXXkNotAXjJ/QEReQv/UiO0jNAIECBAgQIAAAQIECBAoRyB/bzsw4qsRT47w5piBoBGoRUAxsZaVkmcXgVvEQSdHvCni97uc4BgCBAgQIECAAAECBAgQGEzg0jHyCyO+HHHvwbIwMAECUwkoJk7F5eBCBbJw+OaILCRmQVEjQIAAAQIECBAgQIAAgXoEdotUj404PuIG9aQtUwLjFFBMHOe6tzLrfFewfClzXhr/0Ii8VF4jQIAAAQIECBAgQIAAgToF9om0T4l4ecTl65yCrAm0L6CY2P4atzrD+8fE8lL4fJOVnVqdpHkRIECAAAECBAgQIEBgZALbxHwPisiLRh4bsXWERoBAQQKKiQUthlQ6CewZR3004p0R1+h0hoMIECBAgAABAgQIECBAoDaBK0TCr4jIKxXvXFvy8iXQsoBiYsur29bcdonp/FPE5yPu1NbUzIYAAQIECBAgQIAAAQIEVhHYIx4/IeJdEddc5RgPEyDQo4BiYo/YhppJIC9xPyTiaxGPiXCJeyBoBAgQIECAAAECBAgQGJnAfWO+eaur50dcamRzN10CRQkoJha1HJLZTOBu8fkXI46MuOxmz/mUAAECBAgQIECAAAECBMYlsH1M9ykReT/FAyK8CWcgaAT6FlBM7FvceF0ErhMHvT/iQxG7dznBMQQIECBAgAABAgQIECAwGoHfi5m+KeJTEbcczaxNlEAhAoqJhSyENC4U2Dn++6KIUyPueeEj/kOAAAECBAgQIECAAAECBCYL3Dwe/o+IN0f8/uRDPEqAwKIFFBMXLaq/WQTy6/DPI/JS9cMito3QCBAgQIAAAQIECBAgQIDAegL5UueHRuTvk0+NuGSERoDAEgUUE5eIq+tOAreLo/4z4jURV+p0hoMIECBAgAABAgQIECBAgMCmAjvFp8+LyDdpud+mT/mMAIFFCigmLlJTX9MIXC0OfkfExyNuNM2JjiVAgAABAgQIECBAgAABAqsIXCMePybioxE3XOUYDxMgMIeAYuIceE6dSWDHOOtZEf8Tsf9MPTiJAAECBAgQIECAAAECBAisLXCnePoLEa+MuMLah3qWAIFpBBQTp9Fy7LwCD44OTot4RsQO83bmfAIECBAgQIAAAQIECBAgsIbA1vHcX0Z8LeLgiG0iNAIE5hRQTJwT0OmdBG4aR50UcXTEVTud4SACBAgQIECAAAECBAgQILAYgctFN/8Q8d8R+y6mS70QGK+AYuJ4176PmV8lBnl9xGcibt3HgMYgQIAAAQIECBAgQIAAAQKrCFwvHv9wxHsjrrXKMR4mQGAdAcXEdYA8PZPAdnHWkyK+GvHwiEtEaAQIECBAgAABAgQIECBAoASB/SKJL0X8XcRlSkhIDgRqEnC/gJpWq45c7x1pvjhitwrS3SlyzHtoaLMLnBOn/nb2051JgAABAgQIECBAgACBQQTyIpgnRhwQ8dSIN0acH6ERILCOgGLiOkCe7ixwgzjyyIh9Op8x/IE/GT6F6jN4ZMwgX8quESBAgAABAgQIEGhJIO+xd3pLExpoLjsONO40w145Dn5dxF9FHBKR9/vXCBBYQ0AxcQ0cT3USuHwc9ayIx0T4eupE5iACBAgQIECAAAECBAoXyFs1XbrwHKW3WIGbRHefjHh7RN6267sRGgECEwTcM3ECioc6CeTLgx8b8bWIgyIUEgNBI0CAAAECBAgQIECAAIGqBR4c2Z8W8YyIHaqeieQJLElAMXFJsI13u0/M778iXhGRVyZqBAgQIECAAAECBAgQIECgFYF8eXa+Au8rEfu3MinzILAoAcXERUmOo598U5VjI46PyHskagQIECBAgAABAgQIECBAoFWBXWNi74g4MWLvVidpXgSmFVBMnFZs3MefF9M/d9wEZk+AAAECBAgQIECAAAECIxO4Zsz3uiObs+kSWFVAMXFVGk9MEPh2PPaAiDtG5MucNQIECBAgQIAAAQIECBAg0KrAWTGxfLlzFhLzCkWNAIEQUEz0ZTCLQF7ifeOIv4j40SwdOIcAAQIECBAgQIAAAQIECBQs8M+R2+4Rz4w4M0IjQGCDgGKiL4VZBc6PE4+KuHbESyO8/DkQNAIECBAgQIAAAQIECBCoWuBzkf3tIvJdnb9T9UwkT2BJAoqJS4IdUbc/j7k+PuKGER+qbN4XRL5ifoPKll26BAgQIECAAAECBAgQ2ELgB/HIIyNuHvHJLZ71AAECvxPY5ncf+YDAfAKnxen32BAviX9ruDntDpHnbyI0AgQIECBAgAABAgQIbCzw0/hkx40f8PFMAu+Ps/5opjP7O+mcGOrIiOdG/LK/YY1EoF4BxcR6167UzD8YiR0fcVDEERE7R2gECBAgQIAAAQIECBCoTSDffEObTyBvj1Vye08kd1jEN0pOUm4EShPwMufSVqSNfPL+iXkfxbyfYt5XsfQNJFLUCBAgQIAAAQIECBAgQGAkAqfGPPeJuE+EQuJIFt00FyegmLg4Sz1tKZDv9Jzv+HyTiHwHaI0AAQIECBAgQIAAAQIECAwl8JMY+LERe0d8ZKgkjEugdgHFxNpXsI78T4k07xixf8TpERoBAgQIECBAgAABAgQIEOhL4Lcx0Msi8tVzr4w4L0IjQGBGAcXEGeGcNpPAv8ZZu0c8PeLXM/XgJAIECBAgQIAAAQIECBAg0F3gw3HonhGHRJzR/TRHEiCwmoBi4moyHl+WwNnRcb5LVr7b89siLojQCBAgQIAAAQIECBAgQIDAIgW+Gp3tF3G3iK8ssmN9ERi7gGLi2L8Chpv/92LoP4u4TcRnh0vDyAQIECBAgAABAgQIECDQkMDPYy5PiNgj4v0NzctUCBQjoJhYzFKMNpGTY+a3iDgw4v8iNAIECBAgQIAAAQIECBAgMK3A+XHCayLyvogvjjg3QiNAYAkC2yyhT10SmFYgX+r8pohjIp4W8biI7SM0AgQIECCwDIErRKel/Ax05WVMcKM+84bz+c6VGgECBAgQaFngxJjcoRH55p8aAQJLFijlB+klT1P3lQj8KvJ8SkT+NSn/knSfCI0AAQIECCxa4K+iw2cvutMZ+/v+jOd1PS3neUTXgx1HgAABAgQqE/h25PvEiHdWlrd0CVQt4GXOVS9fs8l/M2Z234h9Ik5tdpYmRoAAAQJDCfx9DHz6UIP3OO53Y6y/7XE8QxEgQIAAgb4Efh0DHR5xvQiFxL7UjUNgg4Bioi+FkgU+EsntHfHYCC/RKnml5EaAAIG6BM6OdPMqhtbbk2KCZ7Y+SfMjQIAAgVEJ5C2y3hJxnYjnReSerhEg0LOAYmLP4IabWuC8OOOVEXkT3ZdH5L2fNAIECBAgMK/Av0YHH5+3k4LPPylye3vB+UmNAAECBAhMK/DpOOFWEQdE/L9pT3Y8AQKLE1BMXJylnpYrcEZ0f3DEXhHHL3covRMgQIDASAQOiXnmOz+21vKqjZybRoAAAQIEWhD4XkzioRFZSMyCokaAwMACiokDL4Dhpxb4cpyxb8S9I74+9dlOIECAAAECFwvkOz6+9uJPm/nojTGTzzUzGxMhQIAAgbEK5EuYnxtx3Yi3RuQfyzQCBAoQUEwsYBGkMJPAe+OsG0Tk/aB+OVMPTiJAgAABAhfdvP3nDUHknvjUhuZjKgQIECAwToG8HcnuEU+PyDdb0QgQKEhAMbGgxZDK1ALnxBl/H5H3U3x9RIsvVYtpaQQIECCwRIEfRd/PXmL/fXedV3B8v+9BjUeAAAECBBYkkK8auEPE/hGnL6hP3RAgsGABxcQFg+puEIEfxKiPjLh5RN5wXiNAgAABAtMI5Bt8nTbNCYUe+43I68hCc5MWAQIECBBYS+CH8eSjI24S8fG1DvQcAQLDCygmDr8GMlicQN4f6rYRD4n438V1qycCBAgQaFzg3Jjf4xuY42Exh7xqXyNAgAABArUI5B784ojrRLwmwqvNAkEjULqAYmLpKyS/WQTeHifl/TWeFXHWLB04hwABAgRGJ/DBmPGHKp71CZH7eyrOX+oECBAgMD6B98eU8z74T4ho6f7F41tJMx6dgGLi6JZ8NBM+M2b6zIgsKr4jQiNAgAABAusJPC4OyCskamvnRcKH1pa0fAkQIEBgtAJfjpnfNWK/iK+NVsHECVQsoJhY8eJJvZPAd+KoB0XcLuLznc5wEAECBAiMVSDvm/iKCif/T5HzlyrMW8oECBAgMC6BM2K6B0fsFXHcuKZutgTaElBMbGs9zWZ1gU/GUzeLeFRE3txXI0CAAAECkwTyFhn5Ds+1tJ9GokfUkqw8CRAgQGCUAnkF/T9GXDsi3/TstxEaAQIVCygmVrx4Up9aIG/m+9qI3MReFHFBhEaAAAECBDYWyHs2Hb7xA4V/nIXELChqBAgQIECgRIF/j6TySsSDIn5SYoJyIkBgegHFxOnNnFG/wC9iCk+M8I6X9a+lGRAgQGAZAvmHp/9aRscL7jNf2vyqBfepOwIECBAgsEiB50dnuV9pBAg0JKCY2NBimgoBAgQIECCwEIG8kv2QhfS03E7yTVe8VGy5xnonQIAAAQIECBDYTEAxcTMQnxIgQIAAAQIEQuDEiHcWLPHeyO2EgvOTGgEC1I205gAAMnpJREFUBAgQIECAQKMCiomNLqxpESBAgAABAnMLPCF6OHvuXhbfQd6m47DFd6tHAgQIECBAgAABAusLKCaub+QIAgQIECBAYJwCp8e08w27SmtHRkJfLy0p+RAgQIAAAQIECIxDQDFxHOtslgQIECBAgMBsAi+M074326lLOesH0etzl9KzTgkQIECAAAECBAh0EFBM7IDkEAIECBAgQGC0Ar+OmT+5oNk/JXL5ZUH5SIUAAQIECBAgQGBkAoqJI1tw0yVAgAABAgSmFjg6zjh56rMWf8Lnoss3Lr5bPRIgQIAAAQIECBDoLqCY2N3KkQQIECBAgMA4BS6IaR8Skf8O2UrIYcj5G5sAAQIECBAgQKAAAcXEAhZBCgQIECBAgEDxAp+NDN80YJZvj7FPGnB8QxMgQIAAAQIECBC4UEAx0RcCAQIECBAgQKCbwFD3Kzwz0ivpvo3dtBxFgAABAgQIECDQpIBiYpPLalIECBAgQIDAEgS+H30+bwn9rtfl38UB/7veQZ4nQIAAAQIECBAg0IeAYmIfysYgQIAAAQIEWhE4MibyjR4n850YK4uJGgECBAgQIECAAIEiBBQTi1gGSRAgQIAAAQKVCPwm8nxCj7k+KcY6q8fxDEWAAAECBAgQIEBgTQHFxDV5PEmAAAECBAgQ2ELg2HjkI1s8uvgHPhldvmPx3eqRAAECBAgQIECAwOwCiomz2zmTAAECBAgQGK/AoTH185Y4/fOj70OW2L+uCRAgQIAAAQIECMwkoJg4E5uTCBAgQIAAgZELnBrzf9USDd4QfX9+if3rmgABAgQIECBAgMBMAoqJM7E5iQABAgQIECCw1TPC4KdLcPhF9PnUJfSrSwIECBAgQIAAAQJzCygmzk2oAwIECBAgQGCkAllIPGIJc39O9PnDJfSrSwIECBAgQIAAAQJzCygmzk2oAwIECBAgQGDEAvlS5y8tcP5fi75etsD+dEWAAAECBAgQIEBgoQKKiQvl1BkBAgQIECAwMoHfxnzzzVgW1Q6Ljs5ZVGf6IUCAAAECBAgQILBoAcXERYvqjwABAgQIEBibwAkx4fcsYNLHRR/vW0A/uiBAgAABAgQIECCwNAHFxKXR6pgAAQIECBAYkcC8VxTmFY6PG5GXqRIgQIAAAQIECFQqoJhY6cJJmwABAgQIEChK4BuRzZFzZPTKOPfLc5zvVAIECBAgQIAAAQK9CCgm9sJsEAIECBAgQGAEAs+NOX5/hnn+JM555gznOYUAAQIECBAgQIBA7wKKib2TG5AAAQIECBBoVOCXMa+nzjC3Z8Q5Z8xwnlMIECBAgAABAgQI9C6gmNg7uQEJECBAgACBhgXeGHP7zynm98U49tVTHO9QAgQIECBAgAABAoMKKCYOym9wAgQIECBAoDGBC2I+h0wxp0Pj2POmON6hBAgQIECAAAECBAYVUEwclN/gBAgQIECAQIMC/xFzOrrDvI6NYz7a4TiHECBAgAABAgQIEChGQDGxmKWQCAECBAgQINCQwJNjLmeuMZ/fxHOHrfG8pwgQIECAAAECBAgUKaCYWOSySIoAAQIECBCoXOC7kf8L15jDS+O5b67xvKcIECBAgAABAgQIFCmgmFjkskiKAAECBAgQaEDgRTGH0yfM4//isedNeNxDBAgQIECAAAECBIoXUEwsfokkSIAAAQIECFQqcFbk/cQJuT8lHvvVhMc9RIAAAQIECBAgQKB4AcXE4pdIggQIECBAgEDFAv8auX98o/w/Gx+/eaPPfUiAAAECBAgQIECgKgHFxKqWS7IECBAgQIBAhQKHRM7nR1wQkR/nvxoBAgQIECBAgACBKgW2qTJrSRMgQIAAAQIE6hE4JVJ9XcSOESfXk7ZMCRAgQIAAAQIECGwpoJi4pYlHCBAgQIAAAQKLFnhadLjdojvVHwECBAgQIECAAIG+BRQT+xY3HgECBAgQIDBGgR+NcdLmTIAAAQIECBAg0J6Aeya2t6ZmRIAAAQIECBAgQIAAAQIECBAgQGApAoqJS2HVKQECBAgQIECAAAECBAgQIECAAIH2BBQT21tTMyJAgAABAgQIECBAgAABAgQIECCwFAHFxKWw6pQAAQIECBAgQIAAAQIECBAgQIBAewKKie2tqRkRIECAAAECBAgQIECAAAECBAgQWIqAYuJSWHVKgAABAgQIECBAgAABAgQIECBAoD0BxcT21tSMCBAgQIAAAQIECBAgQIAAAQIECCxFQDFxKaw6JUCAAAECBAgQIECAAAECBAgQINCegGJie2tqRgQIECBAgAABAgQIECBAgAABAgSWIqCYuBRWnRIgQIAAAQIECBAgQIAAAQIECBBoT0Axsb01NSMCBAgQIECAAAECBAgQIECAAAECSxFQTFwKq04JECBAgAABAgQIECBAgAABAgQItCegmNjempoRAQIECBAgQIAAAQIECBAgQIAAgaUIKCYuhVWnBAgQIECAAAECBAgQIECAAAECBNoTUExsb03NiAABAgQIECBAgAABAgQIECBAgMBSBBQTl8KqUwIECBAgQIAAAQIECBAgQIAAAQLtCSgmtremZkSAAAECBAgQIECAAAECBAgQIEBgKQKKiUth1SkBAgQIECBAgAABAgQIECBAgACB9gQUE9tbUzMiQIAAAQIECBAgQIAAAQIECBAgsBQBxcSlsOqUAAECBAgQIECAAAECBAgQIECAQHsCiontrakZESBAgAABAgQIECBAgAABAgQIEFiKgGLiUlh1SoAAAQIECBAgQIAAAQIECBAgQKA9AcXE9tbUjAgQIECAAAECBAgQIECAAAECBAgsRUAxcSmsOiVAgAABAgQIECBAgAABAgQIECDQnoBiYntrakYECBAgQIAAAQIECBAgQIAAAQIEliKgmLgUVp0SIECAAAECBAgQIECAAAECBAgQaE9AMbG9NTUjAgQIECBAgAABAgQIECBAgAABAksRUExcCqtOCRAgQIAAAQIECBAgQIAAAQIECLQnoJg43JreerihjUyAAAECBC4U2DH+uzcLAgQIECAwsMBuMf6VB87B8AQIECDQUUAxsSPUgg87PPp7zIL71B0BAgQIEJhGYNs4+JiIG01zkmMJECBAgMCCBf4g+jsh4tIL7ld3BAgQILAkAcXEJcGu0e1fx3PPWeP5jZ/67caf+JgAgWYEzm1mJiZSq0Du/2+LuFvHCdiPOkI5jEBlAr63K1uwBtPdJeZ0fMTVO87N12xHKIcRqEzA93ZlC6aY2O+CHRDD/cMUQ54zxbEOJUCgHgHf2/WsVauZHhUTe8AUk/vNFMc6lACBegR8b9ezVi1mepmY1L9FXG+KyfmanQLLoQQqEvC9XdFiZaqKif0t2H1jqNdHXGKKIac5dopuHUqAwMAC/t878AKMfPgXx/wfOaWBr9kpwRxOoBIB39uVLFSDae4Qc3pfxE2mnJuv2SnBHE6gEgHf25Us1EqaFmxFYrn/7hPdvz1i6ymH2WnK4x1OgEAdAvmmFxqBIQSeHoM+foaB7UczoDmFQAUCvrcrWKQGU8x79r4z4vYzzM3X7AxoTiFQgYDv7QoWaeMUFRM31ljOx7eKbo+N2H6G7q8wwzlOIUCgfAHf2+WvUYsZHhyTevaME/M1OyOc0wgULuB7u/AFajC9/P3zLRH3mHFuvmZnhHMagcIFfG8XvkCbp6eYuLnIYj/fM7r7QMSsVfZ8ZzONAIH2BK7a3pTMqHCBh0V+R86Ro/1oDjynEihYwPd2wYvTaGqvink9cI65+ZqdA8+pBAoW8L1d8OJMSk0xcZLKYh67dnRzXMTl5ujuWnOc61QCBMoV2K3c1GTWoEDes/d1EfPch9d+1OAXhikRCAHf274M+hT4+xjsUXMO6Gt2TkCnEyhQIH9GvWaBeUlpDQHFxDVw5njqD+Pc4yOuPEcfeWoWIlXo50R0OoECBW5YYE5SalPgLjGtf46Y9p69m2vssfkDPidAoAkB39tNLGMVkzg8snzCAjL1M9QCEHVBoDCBLCS6p3xhi7JeOoqJ6wlN//wV45QsJO46/akTz7jpxEc9SIBAzQI3qzl5uVcjkPfsfXfEdgvIOH/Icy+bBUDqgkBBAleLXK5UUD5SaVfgoJjacxY0Pb8bLQhSNwQKEvC7UUGL0TUVxcSuUt2O2zkO+3DEdbsd3umoWd7lrFPHDiJAYBCBvNr4GoOMbNAxCewVk/1gxKz37J1kddtJD3qMAIFqBfyMWe3SVZX4QyPbly0w47yadp7bSC0wFV0RILAggdstqB/d9CigmLg47LwsN99s5UaL6/LCnvZdcH+6I0BgWAHf08P6j2H0vGdv/mHrsguerK/dBYPqjsDAAr6nB16AEQx/n5jjGyLmuWfv5kz5++s+mz/ocwIEqhawH1W4fIqJi1m07aKbd0XcZjHdbdJL/vXNVUybkPiEQNUC96o6e8mXLpD37D0hYt579k6a537x4CJ/IZw0hscIEOhHIO+jeo9+hjLKSAXuHPNexD17J/H5WWqSiscI1Clw/UjbGytVuHaKifMvWv4w9raIu87f1ao9PHDVZzxBgEBNApeJZO9WU8JyrUpg5Z69eR+0ZbQsVOZ9GDUCBOoXyCu73Ae1/nUsdQa3jMTeE7H9khLMYuIll9S3bgkQ6Fdg/36HM9qiBBQT55PMKzSOiviT+bpZ9+wD1j3CAQQI1CDwoEjSD781rFR9OS7jnr2TFB426UGPESBQnYDv5eqWrJqE94xMF33P3s0nn3+cve/mD/qcAIHqBLKeotZR3bJdlLBi4nwL9+I4/RHzddHp7OvFUXfodKSDCBAoWeAvSk5ObtUKLOuevZNAHhIP5i9xGgEC9QrkVcz3qzd9mRcskC9VPC6ijzdIeUzBDlIjQKCbQN4r0S3dulkVd5Ri4uxLckSc+rjZT5/6zEOnPsMJBAiUJJDvmnnjkhKSSxMCy7xn7ySgS8WDj5z0hMcIEKhG4C8j02W9/LQaBIkuXOCq0eOy7tk7Kdn8uepGk57wGAEC1Qj0WU+pBqWWRBUTZ1upQ+K0Z8526sxn5b1B8uakGgECdQr8TZ1py7pggT7u2Ttp+o+PB7OIqREgUJ/ATpHyX9eXtowLF1i5Z++uPef5lJ7HMxwBAosTyD8GLPN9JxaXqZ4mCigmTmRZ88ED49mXrnnEcp7MtcqrITUCBOoTyBuR372+tGVcsEBf9+ydRJBXnzxq0hMeI0CgeIEsJO5SfJYSrElg5Z69uw+Q9P1jzBsOMK4hCRCYX+BZ83ehhyEFFBOn08/7y7w2In+JG6I9IAa96RADG5MAgbkE/naus51MYEuBvu7Zu+XIFz3y9PgnX/KsESBQj8DlI9Un15OuTCsQyHv2vj9iqJcb5++yL6jASYoECGwqcNv4dL9NH/JZbQKKid1XLG8O+vaIfFnZUC2LmEcONbhxCRCYSSDf7T3v66MRWJRA3/fsnZT3lePBp016wmMECBQr8OzI7LLFZiex2gTydhfHRGRRYMh2zxjcSyWHXAFjE5hOIGtQQ7zSc7osHb2ugGLiukQXHnDr+O+7I0q4R9RtIo+HXZiV/xAgULpAXrn1ktKTlF9VAodEts8sJOO8d+IQL2srZPrSIFCVwI0jW+9+W9WSFZ1s/g751oi7FZLlyyOP7QvJRRoECKwt8Oh42qst1zaq4lnFxPWXae845AMReRl/KS1f3nalUpKRBwECqwo8P575w1Wf9QSB6QQOjMNL+ktu/oHtqIihbv0RQ2sECHQQ2CaOeU3EkK+u6ZCmQyoRyP/n5//78/ZLpbRrRyJ5+w2NAIGyBf4g0nth2SnKrquAYuLaUteJpz8cUdpLQq4QOb1q7dQ9S4DAwAJ3iPEPGjgHw7cjMPQ9e1eTvF08kVdLagQIlCuQ73ibVyZqBBYhkBc1PHIRHS24j7wfqKudFoyqOwILFsg/bO284D51N5CAYuLq8FeLp06IKPUKwPtGbo9YPX3PECAwoED+AeLNEa7YGnARGhp635jL0PfsXYvzBfHkHmsd4DkCBAYTuHmM/IzBRjdwawL5tfS4QieVV+C+LWKnQvOTFoGxCzw2AO4+doSW5q+YOHk1s4B4fETpL098WeR4/clT8CgBAgMKvD7Gzj9IaATmFSjpnr2rzeWS8cQ7IvwCt5qQxwkMI5B/2PrniCyyaATmFTg4OnjWvJ0s+fx8VdkrlzyG7gkQmF4gbx33oulPc0bJAoqJW65O/uB1XERuRqW3/MXtnRGXLj1R+REYkcATYq555bBGYF6BvaKD0u7Zu9qc8g9beQ8tjQCBMgTyyvg3RVyjjHRkUblAvvnjkZXM4YDI89GV5CpNAmMQyPpK1izyj89aQwKKiZsuZhbn8he3/AWulna9SNTLKWtZLXm2LnCXmKCbCre+yv3ML/+glX/Yyh/AamkPiUQPqyVZeRJoXOCImN+9Gp+j6fUjkPfsfV1EFqhrafnuzreuJVl5EmhYIN/4K6+Q363hOY52aoqJFy/9dvHhuyNq3HjuE3k//+Kp+IgAgQEEdo8x/yXCu2UOgN/YkHmLjbzVRqn37F2L++/iyT9e6wDPESCwdIEHxQh5bzuNwLwC+UfSku/Zu9r8Vn6vu/pqB3icAIFeBF4So9y1l5EM0ruAYuJF5PnLf26UuWHW2v4mEn90rcnLm0DlAleO/D8YUdNVZJWTN5t+FhDzzb9qvedm/lyR++lNIjQCBPoXyHdYf2NETVeR9a9kxC4CeYFFXmiRhbkaW+6n+bPZ5WpMXs4EGhA4JOaQ91rVGhVQTLzoh63XxvrmJfy1t1fGBP6s9knIn0BlAleMfLP4475UlS1cgelmMfrDEdcpMLdpUrpUHPxvEXtOc5JjCRCYW+AW0cP7IrafuycdjF0gb/mUt36q/Y218nZQua/6Y28gaAR6FPjzGOulPY5nqAEEFBMvupnwgQPYL2PIvMLyTRH5VwCNAIHlC+T9Pz4ZscfyhzJC4wI7xvzyF7e9G5nnLjGPj0XcoZH5mAaB0gXuHgnmH7Z2Lj1R+RUvkH/QOi6ilQLczWIuH4+4aoRGgMDyBZ4cQxwV4Qr55VsPOsLYi4nPCv3WLr3NNT0y4rUR3jEpEDQCSxK4W/T7mYjaryJbEo9upxDYLo59d0SN9+xda5r50rK89+NBax3kOQIE5hLIX9byF7e8IjGvCtYIzCNQ8z1715r3DePJz0b4A9daSp4jMJ9A/mH8rREvjFBInM+yirPHXEx8XKxQyzenfmTMLzfNvar4SpQkgXoE8uVjL47I+/Bcvp60ZVqoQF5RfnTEvoXmN29a20YH+a6a74rIqxU1AgQWJ/B70dWHIvIXt/x/iUZgHoG8x2Be3VrrPXvXm/tV4oCPRDwnYpv1DvY8AQJTCdw0jv58xJ9OdZaDqxYYazHxEbFqWQxoveVLL/PKqWdHuH9O66ttfn0I5I3tT4l4fIS/uPUh3vYY+TWUV5Hfv+1pXji7+8Z/vxzxkBHM1RQJLFsg/9+R96P6UsRdlz2Y/kchkC9pbuGevestVhbdD4/4z4h8+bNGgMB8AjvE6X8bcXLEdefrytm1CYyxmPgnsUhjeg1/vnzu6RH5A+e9IjQCBKYX+P045S0RJ0bsPv3pziAwUeCl8eiBE59p88ErxrTeFvHRiHzJmUaAwPQCefXHSRGvifAutdP7OWNLgdbu2bvlDLd8JF+59amIV0fk3qQRIDC9QNZVvhLxpAhX+07vV/0ZYysm3i1WLH+Ryb9Kja3tFhN+T0T+EnfzsU3efAnMKHCZOO+5EV+N+LMIVyMGgrYQgWdGL4cspKf6OrlTpPyFiNdFXLW+9GVMYBCBa8ao+TNsvuLkVoNkYNAWBVq9Z2+Xtcrfgx8d8fWIp0VkUVUjQGB9gdvGIZ+M+NeIXdc/3BGtCoypmJhf9MdE5KY55pa/xH064r0RNxkzhLkTWEMgi4j5g+W3Nvy70xrHeorAtAKHxglHTHtSY8fnH/UeEZG/xOU9Ff8gQiNAYEuBq8dD+Yqa/4l4SIQ/agWCthCB/P/w0RH7LqS3ejtZ+cPxN2MKh0UoKta7ljJfrsAto/t/i/hExG2WO5TeaxAYSzHxRrEY74+wOVz8VblffJj3CzkhYv+IbSM0AmMXuH4A5Luhnx6RVyR6g5VA0BYq8PDo7SUL7bHuzvJ+vgdFfCPiLRF5X1KNwNgFsmB454h3ROSV8Y+K8HNaIGgLE8ivsddGjOGevV3RrhwHvigifwb8u4hrRWgExi6QP6flH7JOjMj7It41QiNwocA2I3C4bswxbyi88wjmOssU84fVjJ9FpNMHIvKdAX8coRFoXWDrmOCtI+65IfZofcLmN6hA/tL2moj8JU7bVCB/WP2zDfGd+Df3ovwjYN6a4+wIjUDrAnkF/D4RK/vR77c+YfMbVOClMfqBg2ZQ7uC7RGpP3BB5S46V/eiz8fH5ERqB1gWysH73iD+OuEtEXr2rEdhCoPViYr6GP6+8u+IWM/fA5gL5Lm4P3BC5UX4x4uMR/xWR78CZ8fMIjUCtAvn/u90i8urDG0TkPaduG2GDDARt6QL5l9x8OVkWsLW1Ba4WT//lhshCYt6a46SI3Je+EnFahAJjIGjVCuwQmeebeeV+lG9GlHvRzSLGfiueINB6EHhmjHFID+O0MES+ui3j8IgzIj4RcXLEyu9G34yPFRgDQatW4HKRee5FGXtH3D4if0/yh+9A0NYWaLmYmBX14yOuujaBZycI5Mvf99oQGz99ZnySBcW8inElzt34AB8TKEQgN8BLR2SRfCWyaDiWWzvEVLWCBPK+Mu+KUCiYflEuGafcYUOsnH1BfPCriJV9KP/9RcR5ERqB0gTyDwg7R6zsRfnvpUpLUj6jETg0Zjr2e/bOuthZdLnXhljpI/ed3H9yH1qJ3J9yn9IIlCaQP4fmHrQSuTflH7c0AjMJtFpMzP/ZHxdx7ZlUnLSawI7xRMbvrXaAxwkQIEBgE4G947N8iVT+v1NbjMDKHwvyDwZ/uJgu9UKAAIHmBR4eM3xJ87Psd4L5x4L8vTNDI0CAwKgEWrxKZ6dYwQ9G7DmqlTRZAgQIEChNwD17S1sR+RAgQGCcAn8S03bP3nGuvVkTIEBgKQKtFRPzBu7HRtxyKVo6JUCAAAEC3QTyvn95q40rdTvcUQQIECBAYCkCec/et0W4Z+9SeHVKgACBcQq0VEzMDfKfI/YZ51KaNQECBAgUIpD37D0hwktwC1kQaRAgQGCkAu7ZO9KFN20CBAgsW6CVYmLeP+n1EfdZNpj+CRAgQIDAGgJ5U+sPR7hn7xpIniJAgACBpQvcKEZwz96lMxuAAAEC4xRopZj4sli+A8a5hGZNgAABAoUIrNyzd69C8pEGAQIECIxTwD17x7nuZk2AAIHeBFooJj4ntA7qTcxABAgQIEBgS4Ht4qF3R9xqy6c8QoAAAQIEehNYuWfvFXsb0UAECBAgMDqB2ouJh8WKHT66VTNhAgQIEChJIO/Z+/aIu5SUlFwIECBAYHQC7tk7uiU3YQIECAwjUHMx8c+D7EXDsBmVAAECBAhcKJD37H1dxP14ECBAgACBAQXynr3HRbhn74CLYGgCBAiMRaDWYuL+sUCvHssimScBAgQIFCtwZGT2sGKzkxgBAgQIjEFg5Z69e45hsuZIgAABAsML1FhMvHuwvTWixtyHX3EZECBAgMCiBJ4VHR28qM70Q4AAAQIEZhDYPs45NsI9e2fAcwoBAgQIzCZQW0HudjHNYyK2nW26ziJAgAABAgsReFz08oyF9KQTAgQIECAwm8A2cVres3ef2U53FgECBAgQmE0gN6Ba2l6RaL6UbIdaEpYnAQIECDQpcEDM6p5NzsykCBAgQKAmgaMi2f1qSliuBAgQINCGQE3FxNu3QW4WBAgQIFC5wB9Xnr/0CRAgQKANAYXENtbRLAgQIFCdQG0vc64OWMIECBAgQIAAAQIECBAgQIAAAQIEWhFQTGxlJc2DAAECBAgQIECAAAECBAgQIECAwJIFFBOXDKx7AgQIECBAgAABAgQIECBAgAABAq0IKCa2spLmQYAAAQIECBAgQIAAAQIECBAgQGDJAoqJSwbWPQECBAgQIECAAAECBAgQIECAAIFWBBQTW1lJ8yBAgAABAgQIECBAgAABAgQIECCwZAHFxCUD654AAQIECBAgQIAAAQIECBAgQIBAKwKKia2spHkQIECAAAECBAgQIECAAAECBAgQWLKAYuKSgXVPgAABAgQIECBAgAABAgQIECBAoBUBxcRWVtI8CBAgQIAAAQIECBAgQIAAAQIECCxZoJRi4rZLnqfuCRAgQKA+gSH2hm3qY5IxAQIECCxZYIi9YYg9cMmMuidAgACBOQWK2RtKKSbuMCeo0wkQIECgPYEh9oYhxmxv5cyIAAECbQkMsTcMMWZbq2Y2BAgQaE+gmL2hlGLi1u2tsRkRIECAwJwCQ+wNQ1x9MieT0wkQIEBgyQJD7EdDjLlkRt0TIECAwJwCxewNpRQTz5sT1OkECBAg0J7AEHvDEGO2t3JmRIAAgbYEzh9gOvajAdANSYAAgcIFitkbSikmnlX4gkmPAAECBPoXOLv/IbeyHw2AbkgCBAgULjDE3jDEHlj4MkiPAAECoxcYYj+aiF5KMfEXE7PzIAECBAiMWeDnA0x+iDEHmKYhCRAgQGAKgSH2hiHGnILEoQQIECAwgEAxe0MpxcQfDbAIhiRAgACBsgWG2Bt+XDaJ7AgQIEBgAIEh9oYh9sABaA1JgAABAlMIDLEfTUyvlGLi9yZm50ECBAgQGLPA/xtg8vajAdANSYAAgcIFhtgbhtgDC18G6REgQGD0AkPsRxPRSykmnh7ZXTAxQw8SIECAwFgFvjXAxL89wJiGJECAAIGyBYbYj4YYs+xVkB0BAgTGLZA1s6ydFdFKKSaeGRrfLUJEEgQIECBQisBXB0jktAHGNCQBAgQIlC0wxH40xJhlr4LsCBAgMG6BrJll7ayIVkoxMTFOLUJEEgQIECBQisAXB0gkN+mfDTCuIQkQIECgTIHcE4a46GGIPbDMFZAVAQIECKRAUTWzkoqJn/P1QYAAAQIENgj8Jv790kAanx9oXMMSIECAQHkCQ+0JuQfmXqgRIECAAIEUKKpmVlIx8VO+PggQIECAwAaB3CzPHUjDfjQQvGEJECBQoMBQe0LugUMVMgtcBikRIEBg9AJD7UcT4UsqJp4UGZ4/MUsPEiBAgMDYBD4+4ISHHHvAaRuaAAECBCYInDjhsb4eGnLsvuZoHAIECBBYXyBrZZ9c/7D+jiipmJj3I/lsf1M3EgECBAgULHDCgLl9Isb20rIBF8DQBAgQKEQg94Ihf3kbci8sZAmkQYAAAQIhkLWyn5ckUVIxMV0+WBKOXAgQIEBgEIFfxqhZ0Buq5bukfWyowY1LgAABAsUIfCwyGfKdM3MvzD1RI0CAAIFxCxRXKyutmHjsuL8+zJ4AAQIEQiA3y3MGlrAfDbwAhidAgEABAkPvBbkXFvcLZAHrIgUCBAiMTWDo/WgL79KKif8dGZ62RZYeIECAAIExCfxLAZN9V+RwXgF5SIEAAQIEhhHIPeCYYYbeZNQS9sRNEvIJAQIECPQqkDWyrJUV1UorJibOW4sSkgwBAgQI9ClwRgz2gT4HXGWsH8bjx63ynIcJECBAoH2BD8cUf1TANHNP/FkBeUiBAAECBIYRKLJGVmIx8U2xPt7VeZgvUqMSIEBgaIGjI4G84X0J7fUlJCEHAgQIEBhEoJQ9IPfEtw0iYFACBAgQGFoga2NvHDqJSeNfYtKDBTz23shhvwLykAIBAgQI9Ctwwxju1H6HXHW0beOZ0yN+b9UjPEGAAAECLQr8X0xq14hzC5ncHpHHFwvJRRoECBAg0J9A1sbu3d9w3Ucq8crEzP5l3afgSAIECBBoRODfYx6lFBKTNH+JfFV+oBEgQIDAqAT+KWZbSiEx4XNvzD1SI0CAAIFxCRRbGyv1ysT88vhCxN7j+joxWwIECIxa4J4x+9LetXKXyCmvTtxx1Ctj8gQIEBiPwJkx1bwq8ceFTfkekU8J9xQujEU6BAgQaFbglJjZjUqdXalXJqbXC0pFkxcBAgQILFwgN8vSCok5yfxl8jX5gUaAAAECoxA4KmZZWiEx4XOPzL1SI0CAAIFxCBRdEyv5ysQsdP53xA3G8XVilgQIEBi1wH1j9scWKpD3TPxGxA6F5ictAgQIEFiMwFnRzW4Rec/EEtt9Iql3l5iYnAgQIEBgoQJfit72jCj2zYlLvjIx0Q5f6HLojAABAgRKFPhsJFVqITG98pfKV+QHGgECBAg0LZD/ry+1kJjwuVfmnqkRIECAQNsCWQsrtpCY9CVfmbjypfHJ+OA2K5/4lwABAgSaE7hjzOjEwmd1ucjv6xGXLzxP6REgQIDAbAI/jdOuFXHGbKf3dtYdYqSP9TaagQgQIECgb4GTYsDb9j3otOOVfGXiylwOjQ8uWPnEvwQIECDQlMC7YjalFxITPH+5fGZ+oBEgQIBAkwJHxKxKLyQmfO6ZuXdqBAgQINCeQNa+sgZWfKvhysREzJvf/3nxmhIkQIAAgWkE8t5U14s4fZqTBjx2mxj7cxF5/xKNAAECBNoRyPu03zjivEqmtGvk+ZUI9/KtZMGkSYAAgY4Cr43jHtXx2EEPq+HKxAR6csSPBpUyOAECBAgsWuDZ0WEthcSc+28j/jLC1fKpoREgQKANgfx/+mMiaikkpnrunbmHagQIECDQjkDWvLL2VUXbuoost9oqr175XsT9K8lXmgQIECCwtsAp8fTDI4q+sfCEKfxvPHbFiJtPeM5DBAgQIFCfwD9GykfVl/ZWn4qc7xVxlQpzlzIBAgQIbCnw6HjoM1s+XOYjlygzrVWzyncwu/eqz3qCAAECBGoQODeSzGJcFhRrbJeKpPMlcdeoMXk5EyBAgMDvBL4VH+WtK371u0fq+mDvSDd/8dy2rrRlS4AAAQKbCbwnPr/PZo8V/WktL3NeQcxKrZc7r2j4lwABAnUKPCvSrrWQmOL5S+eBEbVdVRkpawQIECCwQSD/H/6wiFoLiTmN3EtzT9UIECBAoF6BrHFlrauqVsvLnFdQfx0f5M2GH7LygH8JECBAoCqBT0S2eVPh2u87eHrM4ZIRt4vQCBAgQKA+gRdEym+oL+0tMv6PeOROEbtu8YwHCBAgQKAGgQdFkl+oIdGNc7zExp9U9PGRkeshFeUrVQIECBDYaqufBsLeEXnfwRZavrvzxyNu1cJkzIEAAQIjEsgC3B0i8o21Wmh/GJPIqxQv38JkzIEAAQIjEviHmOuhNc631mLidoGdv8DdokZ0ORMgQGCEAnkl4h9HfLCxuecvcPmXxCs0Ni/TIUCAQKsCP46J3TiilT9srazTPeKD90fU+vvdyjz8S4AAgbEIfDomevuIc2qccG33TFwxTuwHRLh/4oqIfwkQIFC2wHMjvdYKiSmev4w+OML9E1NDI0CAQNkC50V6+f/s1gqJqZ57bO61GgECBAiUL5C1rKxpVVlITN6t8z+Vtl9E3vnuZX8aUfM8KuWXNgECBDoLvC+OfExEXp3YYvtmTOqsiLu0ODlzIkCAQEMCT465vLWh+Ww+lRPjgbzq8rqbP+FzAgQIEChG4NzIZL+I/y4moxkSqb0Id3rM+YcR+dI5jQABAgTKEzg1UrpnxG/KS22hGeX9t64ZsddCe9UZAQIECCxK4E3R0ZMW1Vmh/eQf7fKlzvlL6pUKzVFaBAgQGLvAYwPgmNoRWrmnxotjIR5f+2LInwABAo0J/CDmk/e2zT/8jKHl/XyPj8h7n2gECBAgUI5A3ms9rx6v9uVkU1LuGsfnvbiuPOV5DidAgACB5Qq8JLo/bLlD9NN7K8XEvPfjv0Tcvx82oxAgQIDAOgK/jufvGPGf6xzX2tOXjwmdFLF7axMzHwIECFQq8D+R960jzqg0/1nTvmmc+LGInWbtwHkECBAgsFCBvBpx/4gm7rWeRbgWWi5G3jvxIy1MxhwIECBQuUC+pPl+EWMrJOay/TTirhHfyU80AgQIEBhUIK+M3zdibIXERM89OPfi1m8zknPVCBAgULpA1qqyZtVEITGxWykm5lxyo7xXxHH5iUaAAAECgwjkG5HcJ2LM/y/OQuIdI74ZoREgQIDAMAL5/+A7RrT4zs1dRXMvzj0592aNAAECBIYRyP8XZ62qqT/utFRMzC+LMyPyhsMtv0tbzlMjQIBAiQI/iqTuHPFvJSbXc07fivFuE/G5nsc1HAECBAhcdFVe/j/42zAu3JNzb849WiNAgACBfgWyNpU1qqxVNdVaKybm4pwT8dCIv4lo5hLSmItGgACBkgVOieRuHnFyyUn2nNv3Y7zbR7y953ENR4AAgTELHB2Tz//35v+DtYsEcm/OPTr3ao0AAQIEli+QtaisSWVtKmtUzbWtm5vRxRPKG+B/IiLvk3Lpix/2EQECBAgsWOCo6O8BET9ecL8tdHduTOKYiLwiZJ+IbSI0AgQIEFi8wNnR5cERT4n47eK7r77Hn8UM3hxxxYibVD8bEyBAgEC5Av8XqeUtJpp+xWwr7+a81pfRLvHkqyK80/NaSp4jQIDA9AJZIHt0xLHTnzrKM/aIWb8lYu9Rzt6kCRAgsDyBL0TXefXHl5Y3RFM95y+5+YfALCxqBAgQILA4gbyI4DERzV9k0eLLnDf/MshF/JOIB0b8YPMnfU6AAAECMwnky8iuH6GQ2J3v1Dg0X2b29IimbsDcncCRBAgQWKhA/r/08IhbRCgkdqfNvTv38NzLNQIECBCYXyBrTVlzytpT84XE5BrDlYk5z5V2ufjguRFZKR5DIXVl3v4lQIDAogS+Gh0dFHH8ojocaT/XiXm/PGLfkc7ftAkQIDCvwIejg7+O+Nq8HY38/LvE/F8RkfuSRoAAAQLTCeS9EV8d8bSIM6Y7te6jx1ZQy8V9bETeJ+RjERoBAgQIdBP4eRz2hIgbRigkdjNb66gsyt41Il9q9vW1DvQcAQIECGwikMXDe0fcLUIhcROamT7JPT339tzjc6/XCBAgQKCbwMfisKwt/VXEqAqJMd/RXZmYc9647RefvCDiBhs/6GMCBAgQ+J3AOfHRKyPyqu6f/O5RHyxSYNvo7C8i8uXPV1pkx/oiQIBAQwI/jLk8JyKvADm3oXmVNJUrRDJPi8hfjLcvKTG5ECBAoCCBvK3GUyLeV1BOvacytpc5TwLOqzMfHHFExLUnHeAxAgQIjFAg3wnzDRFZRPzOCOc/xJQvFYPmO5Hm1SF5Ww6NAAECBLba6qeB8KKIl0f8CkgvAleLUfJelAdG5B+8NAIECBC46Gr4ZwfE0RH58uZRN8XEi5d/6/gwi4r517jdL37YRwQIEBiVQF6JmEXEF0Z8O0LrX+AyMWTekuPxEbv0P7wRCRAgUITAjyKLl0a8IuKXRWQ0viSuHlP+m4iHR2wXoREgQGCMAv8Tk35+RBYRzxsjwKQ5KyZuqZIm+0bkS87yZdDbRGgECBBoXeBbMcGjIrKQmO9Gpg0vsEOksH9E7ke3Gj4dGRAgQKAXgZNjlFdF/EvE2b2MaJD1BPIWHI+IeHTENdY72PMECBBoQCBfpZUvY351xHERF0RoGwkoJm6EMeHDvCLkXhH3i9gnYvsIjQABAq0I5Bt/vCvi3RGfjrBJBkKh7VqR1303xC3jX/t3oQslLQIEphbIvedTEbkXZeTepJUpkHvPLSJW9iO3iCpznWRFgMBsAr+J006IyN+P3hvx4whtFQG/jKwCM+HhHeOx20XceUPsHf/m/RY1AgQI1CKQG+K/R3xkQ/iFrZaV2zTPK8and4pY2Y922/RpnxEgQKB4gW9Ehit7Ue5L+ZJmrT6B/EPXyl6U+5Jbc9S3hjImMGaBvO/hKREr+9En4uMzxwwyzdwVE6fR2vTYy8aneXVIvhP09TeKvNeVRoAAgSEFcmP8ZsSXN4rPb/jY1YcB0Vi7aswnrxTZeC+6bnzuavrGFtp0CFQokFd5nBaxsh/lO2B+JuK7EVpbAvl7Ze5DN97w78qedM343AUYgaARIDCowC9i9JW9KP/N/Siviv9ZhDaDgGLiDGjrnLJjPJ+Fxo1j5w2fX3Kdcz1NgACBrgJZMMxNMTfAlfj5ho/z3/MitPEK5P5+6Yjci1b2oJV9KT/37pyBoBEgsBCBc6OXlf1nZT/Kf/OxfOMUf8QKhBG3rWPuK/vQyr8r+1FehKHQOOIvDlMnsGCBvM/uyv6z8X6UH5+54LF0R4AAAQIECBAgQIAAAQIECBAgQIAAAQIECBAgQIAAAQIECBAgQIAAAQIECBAgQIAAAQIECBAgQIAAAQIECBAgQIAAAQIECBAgQIAAAQIECBAgQIAAAQIECBAgQIAAAQIECBAgQIAAAQIECBAgQIAAAQIECBAgQIAAAQIECBAgQIAAAQIECBAgQIAAAQIECBAgQIAAAQIECBAgQIAAAQIECBAgQIAAAQIECBAgQIAAAQIECBAgQIAAAQIECBAgQIAAAQIECBAgQIAAAQIECBAgQIAAAQIECBAgQIAAAQIECBAgQIAAAQIECBAgQIAAAQIECBAgQIAAAQIECBAgQIAAAQIECBAgQIAAAQIECBAgQIAAAQIECBAgQIAAAQIECBAgQIAAAQIECBAgQIAAAQIECBAgQIAAAQIECBAgQIAAAQIECBAgQIAAAQIECBAgQIAAAQIECBAgQIAAAQIECBAgQIAAAQIECBAgQIAAAQIECBAgQIAAAQIECBAgQIAAAQIECBAgQIAAAQIECBAgQIAAAQIECBAgQIAAAQIECBAgQIAAAQIECBAgQIAAAQIECBAgQIAAAQIECBAgQIAAAQIECBAgQIAAAQIECBAgQIAAAQIECBAgQIAAAQIECBAgQIAAAQIECBAgQIAAAQIECBAgQIAAAQIECBAgQIAAAQIECBAgQIAAAQIECBAgQIAAAQIECBAgQIAAAQIECBAgQIAAAQIECBAgQIAAAQIECBAgQIAAAQIECBAgQIAAAQIECBAgQIAAAQIECBAgQIAAAQIECBAgQIAAAQIECBAgQIAAAQIECBAgQIAAAQIECBAgQIAAAQIECBAgQIAAAQIECBAgQIAAAQIECBAgQIAAAQIECBAgQIAAAQIECBAgQIAAAQIECBAgQIAAAQIECBAgQIAAAQIECBAgQIAAAQIECBAgQIAAAQIECBAgQIAAAQIECBAgQIAAAQKFCvx/kvXAhCkY8WEAAAAASUVORK5CYII=;" vertex="1" parent="1">
          <mxGeometry x="148" y="490" width="300.83" height="210" as="geometry" />
        </mxCell>
      </root>
    </mxGraphModel>
  </diagram>
</mxfile>
